<mxfile host="65bd71144e">
    <diagram name="論理モデル" id="cMcam2eDHfJw96YZjZuj">
        <mxGraphModel dx="2694" dy="1195" grid="1" gridSize="10" guides="1" tooltips="1" connect="1" arrows="1" fold="1" page="1" pageScale="1" pageWidth="827" pageHeight="1169" math="0" shadow="0">
            <root>
                <mxCell id="OWrpceyA62pf-gKUSuDv-0"/>
                <mxCell id="OWrpceyA62pf-gKUSuDv-1" parent="OWrpceyA62pf-gKUSuDv-0"/>
                <mxCell id="OWrpceyA62pf-gKUSuDv-21" value="User" style="shape=table;startSize=30;container=1;collapsible=1;childLayout=tableLayout;fixedRows=1;rowLines=0;fontStyle=1;align=center;resizeLast=1;" parent="OWrpceyA62pf-gKUSuDv-1" vertex="1">
                    <mxGeometry x="390" y="250" width="160" height="330" as="geometry"/>
                </mxCell>
                <mxCell id="OWrpceyA62pf-gKUSuDv-22" value="" style="shape=tableRow;horizontal=0;startSize=0;swimlaneHead=0;swimlaneBody=0;fillColor=none;collapsible=0;dropTarget=0;points=[[0,0.5],[1,0.5]];portConstraint=eastwest;top=0;left=0;right=0;bottom=1;" parent="OWrpceyA62pf-gKUSuDv-21" vertex="1">
                    <mxGeometry y="30" width="160" height="30" as="geometry"/>
                </mxCell>
                <mxCell id="OWrpceyA62pf-gKUSuDv-23" value="PK" style="shape=partialRectangle;connectable=0;fillColor=none;top=0;left=0;bottom=0;right=0;fontStyle=1;overflow=hidden;" parent="OWrpceyA62pf-gKUSuDv-22" vertex="1">
                    <mxGeometry width="30" height="30" as="geometry">
                        <mxRectangle width="30" height="30" as="alternateBounds"/>
                    </mxGeometry>
                </mxCell>
                <mxCell id="OWrpceyA62pf-gKUSuDv-24" value="id" style="shape=partialRectangle;connectable=0;fillColor=none;top=0;left=0;bottom=0;right=0;align=left;spacingLeft=6;fontStyle=5;overflow=hidden;" parent="OWrpceyA62pf-gKUSuDv-22" vertex="1">
                    <mxGeometry x="30" width="130" height="30" as="geometry">
                        <mxRectangle width="130" height="30" as="alternateBounds"/>
                    </mxGeometry>
                </mxCell>
                <mxCell id="vorhypG83Ajg2E7g3Um3-25" value="" style="shape=tableRow;horizontal=0;startSize=0;swimlaneHead=0;swimlaneBody=0;fillColor=none;collapsible=0;dropTarget=0;points=[[0,0.5],[1,0.5]];portConstraint=eastwest;top=0;left=0;right=0;bottom=0;" parent="OWrpceyA62pf-gKUSuDv-21" vertex="1">
                    <mxGeometry y="60" width="160" height="30" as="geometry"/>
                </mxCell>
                <mxCell id="vorhypG83Ajg2E7g3Um3-26" value="" style="shape=partialRectangle;connectable=0;fillColor=none;top=0;left=0;bottom=0;right=0;editable=1;overflow=hidden;" parent="vorhypG83Ajg2E7g3Um3-25" vertex="1">
                    <mxGeometry width="30" height="30" as="geometry">
                        <mxRectangle width="30" height="30" as="alternateBounds"/>
                    </mxGeometry>
                </mxCell>
                <mxCell id="vorhypG83Ajg2E7g3Um3-27" value="姓" style="shape=partialRectangle;connectable=0;fillColor=none;top=0;left=0;bottom=0;right=0;align=left;spacingLeft=6;overflow=hidden;" parent="vorhypG83Ajg2E7g3Um3-25" vertex="1">
                    <mxGeometry x="30" width="130" height="30" as="geometry">
                        <mxRectangle width="130" height="30" as="alternateBounds"/>
                    </mxGeometry>
                </mxCell>
                <mxCell id="OWrpceyA62pf-gKUSuDv-25" value="" style="shape=tableRow;horizontal=0;startSize=0;swimlaneHead=0;swimlaneBody=0;fillColor=none;collapsible=0;dropTarget=0;points=[[0,0.5],[1,0.5]];portConstraint=eastwest;top=0;left=0;right=0;bottom=0;" parent="OWrpceyA62pf-gKUSuDv-21" vertex="1">
                    <mxGeometry y="90" width="160" height="30" as="geometry"/>
                </mxCell>
                <mxCell id="OWrpceyA62pf-gKUSuDv-26" value="" style="shape=partialRectangle;connectable=0;fillColor=none;top=0;left=0;bottom=0;right=0;editable=1;overflow=hidden;" parent="OWrpceyA62pf-gKUSuDv-25" vertex="1">
                    <mxGeometry width="30" height="30" as="geometry">
                        <mxRectangle width="30" height="30" as="alternateBounds"/>
                    </mxGeometry>
                </mxCell>
                <mxCell id="OWrpceyA62pf-gKUSuDv-27" value="姓(カナ)" style="shape=partialRectangle;connectable=0;fillColor=none;top=0;left=0;bottom=0;right=0;align=left;spacingLeft=6;overflow=hidden;" parent="OWrpceyA62pf-gKUSuDv-25" vertex="1">
                    <mxGeometry x="30" width="130" height="30" as="geometry">
                        <mxRectangle width="130" height="30" as="alternateBounds"/>
                    </mxGeometry>
                </mxCell>
                <mxCell id="OWrpceyA62pf-gKUSuDv-28" value="" style="shape=tableRow;horizontal=0;startSize=0;swimlaneHead=0;swimlaneBody=0;fillColor=none;collapsible=0;dropTarget=0;points=[[0,0.5],[1,0.5]];portConstraint=eastwest;top=0;left=0;right=0;bottom=0;" parent="OWrpceyA62pf-gKUSuDv-21" vertex="1">
                    <mxGeometry y="120" width="160" height="30" as="geometry"/>
                </mxCell>
                <mxCell id="OWrpceyA62pf-gKUSuDv-29" value="" style="shape=partialRectangle;connectable=0;fillColor=none;top=0;left=0;bottom=0;right=0;editable=1;overflow=hidden;" parent="OWrpceyA62pf-gKUSuDv-28" vertex="1">
                    <mxGeometry width="30" height="30" as="geometry">
                        <mxRectangle width="30" height="30" as="alternateBounds"/>
                    </mxGeometry>
                </mxCell>
                <mxCell id="OWrpceyA62pf-gKUSuDv-30" value="名" style="shape=partialRectangle;connectable=0;fillColor=none;top=0;left=0;bottom=0;right=0;align=left;spacingLeft=6;overflow=hidden;" parent="OWrpceyA62pf-gKUSuDv-28" vertex="1">
                    <mxGeometry x="30" width="130" height="30" as="geometry">
                        <mxRectangle width="130" height="30" as="alternateBounds"/>
                    </mxGeometry>
                </mxCell>
                <mxCell id="OWrpceyA62pf-gKUSuDv-31" value="" style="shape=tableRow;horizontal=0;startSize=0;swimlaneHead=0;swimlaneBody=0;fillColor=none;collapsible=0;dropTarget=0;points=[[0,0.5],[1,0.5]];portConstraint=eastwest;top=0;left=0;right=0;bottom=0;" parent="OWrpceyA62pf-gKUSuDv-21" vertex="1">
                    <mxGeometry y="150" width="160" height="180" as="geometry"/>
                </mxCell>
                <mxCell id="OWrpceyA62pf-gKUSuDv-32" value="" style="shape=partialRectangle;connectable=0;fillColor=none;top=0;left=0;bottom=0;right=0;editable=1;overflow=hidden;" parent="OWrpceyA62pf-gKUSuDv-31" vertex="1">
                    <mxGeometry width="30" height="180" as="geometry">
                        <mxRectangle width="30" height="180" as="alternateBounds"/>
                    </mxGeometry>
                </mxCell>
                <mxCell id="OWrpceyA62pf-gKUSuDv-33" value="" style="shape=partialRectangle;connectable=0;fillColor=none;top=0;left=0;bottom=0;right=0;align=left;spacingLeft=6;overflow=hidden;" parent="OWrpceyA62pf-gKUSuDv-31" vertex="1">
                    <mxGeometry x="30" width="130" height="180" as="geometry">
                        <mxRectangle width="130" height="180" as="alternateBounds"/>
                    </mxGeometry>
                </mxCell>
                <mxCell id="OWrpceyA62pf-gKUSuDv-34" value="" style="shape=partialRectangle;connectable=0;fillColor=none;top=0;left=0;bottom=0;right=0;align=left;spacingLeft=6;overflow=hidden;" parent="OWrpceyA62pf-gKUSuDv-1" vertex="1">
                    <mxGeometry x="420" y="650" width="130" height="30" as="geometry">
                        <mxRectangle width="130" height="30" as="alternateBounds"/>
                    </mxGeometry>
                </mxCell>
                <mxCell id="OWrpceyA62pf-gKUSuDv-35" value="名(カナ)" style="shape=partialRectangle;connectable=0;fillColor=none;top=0;left=0;bottom=0;right=0;align=left;spacingLeft=6;overflow=hidden;" parent="OWrpceyA62pf-gKUSuDv-1" vertex="1">
                    <mxGeometry x="420" y="400" width="130" height="30" as="geometry">
                        <mxRectangle width="130" height="30" as="alternateBounds"/>
                    </mxGeometry>
                </mxCell>
                <mxCell id="OWrpceyA62pf-gKUSuDv-36" value="年齢" style="shape=partialRectangle;connectable=0;fillColor=none;top=0;left=0;bottom=0;right=0;align=left;spacingLeft=6;overflow=hidden;" parent="OWrpceyA62pf-gKUSuDv-1" vertex="1">
                    <mxGeometry x="420" y="430" width="130" height="30" as="geometry">
                        <mxRectangle width="130" height="30" as="alternateBounds"/>
                    </mxGeometry>
                </mxCell>
                <mxCell id="OWrpceyA62pf-gKUSuDv-37" value="性別" style="shape=partialRectangle;connectable=0;fillColor=none;top=0;left=0;bottom=0;right=0;align=left;spacingLeft=6;overflow=hidden;" parent="OWrpceyA62pf-gKUSuDv-1" vertex="1">
                    <mxGeometry x="420" y="460" width="130" height="30" as="geometry">
                        <mxRectangle width="130" height="30" as="alternateBounds"/>
                    </mxGeometry>
                </mxCell>
                <mxCell id="OWrpceyA62pf-gKUSuDv-38" value="誕生日" style="shape=partialRectangle;connectable=0;fillColor=none;top=0;left=0;bottom=0;right=0;align=left;spacingLeft=6;overflow=hidden;" parent="OWrpceyA62pf-gKUSuDv-1" vertex="1">
                    <mxGeometry x="420" y="490" width="130" height="30" as="geometry">
                        <mxRectangle width="130" height="30" as="alternateBounds"/>
                    </mxGeometry>
                </mxCell>
                <mxCell id="OWrpceyA62pf-gKUSuDv-39" value="メールアドレス" style="shape=partialRectangle;connectable=0;fillColor=none;top=0;left=0;bottom=0;right=0;align=left;spacingLeft=6;overflow=hidden;" parent="OWrpceyA62pf-gKUSuDv-1" vertex="1">
                    <mxGeometry x="420" y="520" width="130" height="30" as="geometry">
                        <mxRectangle width="130" height="30" as="alternateBounds"/>
                    </mxGeometry>
                </mxCell>
                <mxCell id="OWrpceyA62pf-gKUSuDv-40" value="Address" style="shape=table;startSize=29;container=1;collapsible=1;childLayout=tableLayout;fixedRows=1;rowLines=0;fontStyle=1;align=center;resizeLast=1;" parent="OWrpceyA62pf-gKUSuDv-1" vertex="1">
                    <mxGeometry x="82.5" y="790" width="160" height="230" as="geometry"/>
                </mxCell>
                <mxCell id="OWrpceyA62pf-gKUSuDv-41" value="" style="shape=tableRow;horizontal=0;startSize=0;swimlaneHead=0;swimlaneBody=0;fillColor=none;collapsible=0;dropTarget=0;points=[[0,0.5],[1,0.5]];portConstraint=eastwest;top=0;left=0;right=0;bottom=1;" parent="OWrpceyA62pf-gKUSuDv-40" vertex="1">
                    <mxGeometry y="29" width="160" height="49" as="geometry"/>
                </mxCell>
                <mxCell id="OWrpceyA62pf-gKUSuDv-42" value="PK&#10;&#10;FK" style="shape=partialRectangle;connectable=0;fillColor=none;top=0;left=0;bottom=0;right=0;fontStyle=1;overflow=hidden;" parent="OWrpceyA62pf-gKUSuDv-41" vertex="1">
                    <mxGeometry width="30" height="49" as="geometry">
                        <mxRectangle width="30" height="49" as="alternateBounds"/>
                    </mxGeometry>
                </mxCell>
                <mxCell id="OWrpceyA62pf-gKUSuDv-43" value="住所id&#10;&#10;user_id" style="shape=partialRectangle;connectable=0;fillColor=none;top=0;left=0;bottom=0;right=0;align=left;spacingLeft=6;fontStyle=5;overflow=hidden;" parent="OWrpceyA62pf-gKUSuDv-41" vertex="1">
                    <mxGeometry x="30" width="130" height="49" as="geometry">
                        <mxRectangle width="130" height="49" as="alternateBounds"/>
                    </mxGeometry>
                </mxCell>
                <mxCell id="OWrpceyA62pf-gKUSuDv-44" value="" style="shape=tableRow;horizontal=0;startSize=0;swimlaneHead=0;swimlaneBody=0;fillColor=none;collapsible=0;dropTarget=0;points=[[0,0.5],[1,0.5]];portConstraint=eastwest;top=0;left=0;right=0;bottom=0;" parent="OWrpceyA62pf-gKUSuDv-40" vertex="1">
                    <mxGeometry y="78" width="160" height="30" as="geometry"/>
                </mxCell>
                <mxCell id="OWrpceyA62pf-gKUSuDv-45" value="" style="shape=partialRectangle;connectable=0;fillColor=none;top=0;left=0;bottom=0;right=0;editable=1;overflow=hidden;" parent="OWrpceyA62pf-gKUSuDv-44" vertex="1">
                    <mxGeometry width="30" height="30" as="geometry">
                        <mxRectangle width="30" height="30" as="alternateBounds"/>
                    </mxGeometry>
                </mxCell>
                <mxCell id="OWrpceyA62pf-gKUSuDv-46" value="" style="shape=partialRectangle;connectable=0;fillColor=none;top=0;left=0;bottom=0;right=0;align=left;spacingLeft=6;overflow=hidden;" parent="OWrpceyA62pf-gKUSuDv-44" vertex="1">
                    <mxGeometry x="30" width="130" height="30" as="geometry">
                        <mxRectangle width="130" height="30" as="alternateBounds"/>
                    </mxGeometry>
                </mxCell>
                <mxCell id="OWrpceyA62pf-gKUSuDv-47" value="" style="shape=tableRow;horizontal=0;startSize=0;swimlaneHead=0;swimlaneBody=0;fillColor=none;collapsible=0;dropTarget=0;points=[[0,0.5],[1,0.5]];portConstraint=eastwest;top=0;left=0;right=0;bottom=0;" parent="OWrpceyA62pf-gKUSuDv-40" vertex="1">
                    <mxGeometry y="108" width="160" height="30" as="geometry"/>
                </mxCell>
                <mxCell id="OWrpceyA62pf-gKUSuDv-48" value="" style="shape=partialRectangle;connectable=0;fillColor=none;top=0;left=0;bottom=0;right=0;editable=1;overflow=hidden;" parent="OWrpceyA62pf-gKUSuDv-47" vertex="1">
                    <mxGeometry width="30" height="30" as="geometry">
                        <mxRectangle width="30" height="30" as="alternateBounds"/>
                    </mxGeometry>
                </mxCell>
                <mxCell id="OWrpceyA62pf-gKUSuDv-49" value="" style="shape=partialRectangle;connectable=0;fillColor=none;top=0;left=0;bottom=0;right=0;align=left;spacingLeft=6;overflow=hidden;" parent="OWrpceyA62pf-gKUSuDv-47" vertex="1">
                    <mxGeometry x="30" width="130" height="30" as="geometry">
                        <mxRectangle width="130" height="30" as="alternateBounds"/>
                    </mxGeometry>
                </mxCell>
                <mxCell id="OWrpceyA62pf-gKUSuDv-50" value="" style="shape=tableRow;horizontal=0;startSize=0;swimlaneHead=0;swimlaneBody=0;fillColor=none;collapsible=0;dropTarget=0;points=[[0,0.5],[1,0.5]];portConstraint=eastwest;top=0;left=0;right=0;bottom=0;" parent="OWrpceyA62pf-gKUSuDv-40" vertex="1">
                    <mxGeometry y="138" width="160" height="92" as="geometry"/>
                </mxCell>
                <mxCell id="OWrpceyA62pf-gKUSuDv-51" value="" style="shape=partialRectangle;connectable=0;fillColor=none;top=0;left=0;bottom=0;right=0;editable=1;overflow=hidden;" parent="OWrpceyA62pf-gKUSuDv-50" vertex="1">
                    <mxGeometry width="30" height="92" as="geometry">
                        <mxRectangle width="30" height="92" as="alternateBounds"/>
                    </mxGeometry>
                </mxCell>
                <mxCell id="OWrpceyA62pf-gKUSuDv-52" value="" style="shape=partialRectangle;connectable=0;fillColor=none;top=0;left=0;bottom=0;right=0;align=left;spacingLeft=6;overflow=hidden;" parent="OWrpceyA62pf-gKUSuDv-50" vertex="1">
                    <mxGeometry x="30" width="130" height="92" as="geometry">
                        <mxRectangle width="130" height="92" as="alternateBounds"/>
                    </mxGeometry>
                </mxCell>
                <mxCell id="OWrpceyA62pf-gKUSuDv-53" value="都道府県" style="shape=partialRectangle;connectable=0;fillColor=none;top=0;left=0;bottom=0;right=0;align=left;spacingLeft=6;overflow=hidden;" parent="OWrpceyA62pf-gKUSuDv-1" vertex="1">
                    <mxGeometry x="112.5" y="864.5" width="130" height="30" as="geometry">
                        <mxRectangle width="130" height="30" as="alternateBounds"/>
                    </mxGeometry>
                </mxCell>
                <mxCell id="OWrpceyA62pf-gKUSuDv-54" value="市区町村" style="shape=partialRectangle;connectable=0;fillColor=none;top=0;left=0;bottom=0;right=0;align=left;spacingLeft=6;overflow=hidden;" parent="OWrpceyA62pf-gKUSuDv-1" vertex="1">
                    <mxGeometry x="112.5" y="894.5" width="130" height="30" as="geometry">
                        <mxRectangle width="130" height="30" as="alternateBounds"/>
                    </mxGeometry>
                </mxCell>
                <mxCell id="OWrpceyA62pf-gKUSuDv-55" value="町域、番地等" style="shape=partialRectangle;connectable=0;fillColor=none;top=0;left=0;bottom=0;right=0;align=left;spacingLeft=6;overflow=hidden;" parent="OWrpceyA62pf-gKUSuDv-1" vertex="1">
                    <mxGeometry x="112.5" y="924.5" width="130" height="30" as="geometry">
                        <mxRectangle width="130" height="30" as="alternateBounds"/>
                    </mxGeometry>
                </mxCell>
                <mxCell id="OWrpceyA62pf-gKUSuDv-56" value="建物名、部屋番号等" style="shape=partialRectangle;connectable=0;fillColor=none;top=0;left=0;bottom=0;right=0;align=left;spacingLeft=6;overflow=hidden;" parent="OWrpceyA62pf-gKUSuDv-1" vertex="1">
                    <mxGeometry x="112.5" y="954.5" width="130" height="30" as="geometry">
                        <mxRectangle width="130" height="30" as="alternateBounds"/>
                    </mxGeometry>
                </mxCell>
                <mxCell id="OWrpceyA62pf-gKUSuDv-57" value="StudyHour" style="shape=table;startSize=30;container=1;collapsible=1;childLayout=tableLayout;fixedRows=1;rowLines=0;fontStyle=1;align=center;resizeLast=1;" parent="OWrpceyA62pf-gKUSuDv-1" vertex="1">
                    <mxGeometry x="-270" y="250" width="178" height="200" as="geometry"/>
                </mxCell>
                <mxCell id="OWrpceyA62pf-gKUSuDv-58" value="" style="shape=tableRow;horizontal=0;startSize=0;swimlaneHead=0;swimlaneBody=0;fillColor=none;collapsible=0;dropTarget=0;points=[[0,0.5],[1,0.5]];portConstraint=eastwest;top=0;left=0;right=0;bottom=1;" parent="OWrpceyA62pf-gKUSuDv-57" vertex="1">
                    <mxGeometry y="30" width="178" height="50" as="geometry"/>
                </mxCell>
                <mxCell id="OWrpceyA62pf-gKUSuDv-59" value="PK&#10;&#10;FK&#10;&#10;" style="shape=partialRectangle;connectable=0;fillColor=none;top=0;left=0;bottom=0;right=0;fontStyle=1;overflow=hidden;" parent="OWrpceyA62pf-gKUSuDv-58" vertex="1">
                    <mxGeometry width="30" height="50" as="geometry">
                        <mxRectangle width="30" height="50" as="alternateBounds"/>
                    </mxGeometry>
                </mxCell>
                <mxCell id="OWrpceyA62pf-gKUSuDv-60" value="学習時間id&#10;&#10;todo_id&#10;" style="shape=partialRectangle;connectable=0;fillColor=none;top=0;left=0;bottom=0;right=0;align=left;spacingLeft=6;fontStyle=5;overflow=hidden;" parent="OWrpceyA62pf-gKUSuDv-58" vertex="1">
                    <mxGeometry x="30" width="148" height="50" as="geometry">
                        <mxRectangle width="148" height="50" as="alternateBounds"/>
                    </mxGeometry>
                </mxCell>
                <mxCell id="OWrpceyA62pf-gKUSuDv-61" value="" style="shape=tableRow;horizontal=0;startSize=0;swimlaneHead=0;swimlaneBody=0;fillColor=none;collapsible=0;dropTarget=0;points=[[0,0.5],[1,0.5]];portConstraint=eastwest;top=0;left=0;right=0;bottom=0;" parent="OWrpceyA62pf-gKUSuDv-57" vertex="1">
                    <mxGeometry y="80" width="178" height="30" as="geometry"/>
                </mxCell>
                <mxCell id="OWrpceyA62pf-gKUSuDv-62" value="" style="shape=partialRectangle;connectable=0;fillColor=none;top=0;left=0;bottom=0;right=0;editable=1;overflow=hidden;" parent="OWrpceyA62pf-gKUSuDv-61" vertex="1">
                    <mxGeometry width="30" height="30" as="geometry">
                        <mxRectangle width="30" height="30" as="alternateBounds"/>
                    </mxGeometry>
                </mxCell>
                <mxCell id="OWrpceyA62pf-gKUSuDv-63" value="教科" style="shape=partialRectangle;connectable=0;fillColor=none;top=0;left=0;bottom=0;right=0;align=left;spacingLeft=6;overflow=hidden;" parent="OWrpceyA62pf-gKUSuDv-61" vertex="1">
                    <mxGeometry x="30" width="148" height="30" as="geometry">
                        <mxRectangle width="148" height="30" as="alternateBounds"/>
                    </mxGeometry>
                </mxCell>
                <mxCell id="OWrpceyA62pf-gKUSuDv-64" value="" style="shape=tableRow;horizontal=0;startSize=0;swimlaneHead=0;swimlaneBody=0;fillColor=none;collapsible=0;dropTarget=0;points=[[0,0.5],[1,0.5]];portConstraint=eastwest;top=0;left=0;right=0;bottom=0;" parent="OWrpceyA62pf-gKUSuDv-57" vertex="1">
                    <mxGeometry y="110" width="178" height="90" as="geometry"/>
                </mxCell>
                <mxCell id="OWrpceyA62pf-gKUSuDv-65" value="" style="shape=partialRectangle;connectable=0;fillColor=none;top=0;left=0;bottom=0;right=0;editable=1;overflow=hidden;" parent="OWrpceyA62pf-gKUSuDv-64" vertex="1">
                    <mxGeometry width="30" height="90" as="geometry">
                        <mxRectangle width="30" height="90" as="alternateBounds"/>
                    </mxGeometry>
                </mxCell>
                <mxCell id="OWrpceyA62pf-gKUSuDv-66" value="" style="shape=partialRectangle;connectable=0;fillColor=none;top=0;left=0;bottom=0;right=0;align=left;spacingLeft=6;overflow=hidden;" parent="OWrpceyA62pf-gKUSuDv-64" vertex="1">
                    <mxGeometry x="30" width="148" height="90" as="geometry">
                        <mxRectangle width="148" height="90" as="alternateBounds"/>
                    </mxGeometry>
                </mxCell>
                <mxCell id="OWrpceyA62pf-gKUSuDv-67" value="実学習時間" style="shape=partialRectangle;connectable=0;fillColor=none;top=0;left=0;bottom=0;right=0;align=left;spacingLeft=6;overflow=hidden;" parent="OWrpceyA62pf-gKUSuDv-1" vertex="1">
                    <mxGeometry x="-241" y="390" width="150" height="30" as="geometry">
                        <mxRectangle width="150" height="30" as="alternateBounds"/>
                    </mxGeometry>
                </mxCell>
                <mxCell id="OWrpceyA62pf-gKUSuDv-68" value="学習タイプ" style="shape=partialRectangle;connectable=0;fillColor=none;top=0;left=0;bottom=0;right=0;align=left;spacingLeft=6;overflow=hidden;" parent="OWrpceyA62pf-gKUSuDv-1" vertex="1">
                    <mxGeometry x="-241" y="420" width="150" height="30" as="geometry">
                        <mxRectangle width="150" height="30" as="alternateBounds"/>
                    </mxGeometry>
                </mxCell>
                <mxCell id="OWrpceyA62pf-gKUSuDv-69" value="タイトル" style="shape=partialRectangle;connectable=0;fillColor=none;top=0;left=0;bottom=0;right=0;align=left;spacingLeft=6;overflow=hidden;" parent="OWrpceyA62pf-gKUSuDv-1" vertex="1">
                    <mxGeometry x="-240" y="360" width="148" height="30" as="geometry">
                        <mxRectangle width="148" height="30" as="alternateBounds"/>
                    </mxGeometry>
                </mxCell>
                <mxCell id="OWrpceyA62pf-gKUSuDv-70" value="Aspiration" style="shape=table;startSize=30;container=1;collapsible=1;childLayout=tableLayout;fixedRows=1;rowLines=0;fontStyle=1;align=center;resizeLast=1;" parent="OWrpceyA62pf-gKUSuDv-1" vertex="1">
                    <mxGeometry x="680" y="250" width="180" height="110" as="geometry"/>
                </mxCell>
                <mxCell id="OWrpceyA62pf-gKUSuDv-71" value="" style="shape=tableRow;horizontal=0;startSize=0;swimlaneHead=0;swimlaneBody=0;fillColor=none;collapsible=0;dropTarget=0;points=[[0,0.5],[1,0.5]];portConstraint=eastwest;top=0;left=0;right=0;bottom=1;" parent="OWrpceyA62pf-gKUSuDv-70" vertex="1">
                    <mxGeometry y="30" width="180" height="80" as="geometry"/>
                </mxCell>
                <mxCell id="OWrpceyA62pf-gKUSuDv-72" value="PK&#10;FK&#10;FK&#10;" style="shape=partialRectangle;connectable=0;fillColor=none;top=0;left=0;bottom=0;right=0;fontStyle=1;overflow=hidden;" parent="OWrpceyA62pf-gKUSuDv-71" vertex="1">
                    <mxGeometry width="30" height="80" as="geometry">
                        <mxRectangle width="30" height="80" as="alternateBounds"/>
                    </mxGeometry>
                </mxCell>
                <mxCell id="OWrpceyA62pf-gKUSuDv-73" value="id&#10;user_id&#10;志望校_id" style="shape=partialRectangle;connectable=0;fillColor=none;top=0;left=0;bottom=0;right=0;align=left;spacingLeft=6;fontStyle=5;overflow=hidden;" parent="OWrpceyA62pf-gKUSuDv-71" vertex="1">
                    <mxGeometry x="30" width="150" height="80" as="geometry">
                        <mxRectangle width="150" height="80" as="alternateBounds"/>
                    </mxGeometry>
                </mxCell>
                <mxCell id="OWrpceyA62pf-gKUSuDv-81" value="DesiredSchool" style="shape=table;startSize=30;container=1;collapsible=1;childLayout=tableLayout;fixedRows=1;rowLines=0;fontStyle=1;align=center;resizeLast=1;" parent="OWrpceyA62pf-gKUSuDv-1" vertex="1">
                    <mxGeometry x="1010" y="245" width="180" height="460" as="geometry"/>
                </mxCell>
                <mxCell id="OWrpceyA62pf-gKUSuDv-82" value="" style="shape=tableRow;horizontal=0;startSize=0;swimlaneHead=0;swimlaneBody=0;fillColor=none;collapsible=0;dropTarget=0;points=[[0,0.5],[1,0.5]];portConstraint=eastwest;top=0;left=0;right=0;bottom=1;" parent="OWrpceyA62pf-gKUSuDv-81" vertex="1">
                    <mxGeometry y="30" width="180" height="30" as="geometry"/>
                </mxCell>
                <mxCell id="OWrpceyA62pf-gKUSuDv-83" value="PK" style="shape=partialRectangle;connectable=0;fillColor=none;top=0;left=0;bottom=0;right=0;fontStyle=1;overflow=hidden;" parent="OWrpceyA62pf-gKUSuDv-82" vertex="1">
                    <mxGeometry width="30" height="30" as="geometry">
                        <mxRectangle width="30" height="30" as="alternateBounds"/>
                    </mxGeometry>
                </mxCell>
                <mxCell id="OWrpceyA62pf-gKUSuDv-84" value="志望校id" style="shape=partialRectangle;connectable=0;fillColor=none;top=0;left=0;bottom=0;right=0;align=left;spacingLeft=6;fontStyle=5;overflow=hidden;" parent="OWrpceyA62pf-gKUSuDv-82" vertex="1">
                    <mxGeometry x="30" width="150" height="30" as="geometry">
                        <mxRectangle width="150" height="30" as="alternateBounds"/>
                    </mxGeometry>
                </mxCell>
                <mxCell id="OWrpceyA62pf-gKUSuDv-85" value="" style="shape=tableRow;horizontal=0;startSize=0;swimlaneHead=0;swimlaneBody=0;fillColor=none;collapsible=0;dropTarget=0;points=[[0,0.5],[1,0.5]];portConstraint=eastwest;top=0;left=0;right=0;bottom=0;" parent="OWrpceyA62pf-gKUSuDv-81" vertex="1">
                    <mxGeometry y="60" width="180" height="30" as="geometry"/>
                </mxCell>
                <mxCell id="OWrpceyA62pf-gKUSuDv-86" value="" style="shape=partialRectangle;connectable=0;fillColor=none;top=0;left=0;bottom=0;right=0;editable=1;overflow=hidden;" parent="OWrpceyA62pf-gKUSuDv-85" vertex="1">
                    <mxGeometry width="30" height="30" as="geometry">
                        <mxRectangle width="30" height="30" as="alternateBounds"/>
                    </mxGeometry>
                </mxCell>
                <mxCell id="OWrpceyA62pf-gKUSuDv-87" value="大学名" style="shape=partialRectangle;connectable=0;fillColor=none;top=0;left=0;bottom=0;right=0;align=left;spacingLeft=6;overflow=hidden;" parent="OWrpceyA62pf-gKUSuDv-85" vertex="1">
                    <mxGeometry x="30" width="150" height="30" as="geometry">
                        <mxRectangle width="150" height="30" as="alternateBounds"/>
                    </mxGeometry>
                </mxCell>
                <mxCell id="OWrpceyA62pf-gKUSuDv-88" value="" style="shape=tableRow;horizontal=0;startSize=0;swimlaneHead=0;swimlaneBody=0;fillColor=none;collapsible=0;dropTarget=0;points=[[0,0.5],[1,0.5]];portConstraint=eastwest;top=0;left=0;right=0;bottom=0;" parent="OWrpceyA62pf-gKUSuDv-81" vertex="1">
                    <mxGeometry y="90" width="180" height="30" as="geometry"/>
                </mxCell>
                <mxCell id="OWrpceyA62pf-gKUSuDv-89" value="" style="shape=partialRectangle;connectable=0;fillColor=none;top=0;left=0;bottom=0;right=0;editable=1;overflow=hidden;" parent="OWrpceyA62pf-gKUSuDv-88" vertex="1">
                    <mxGeometry width="30" height="30" as="geometry">
                        <mxRectangle width="30" height="30" as="alternateBounds"/>
                    </mxGeometry>
                </mxCell>
                <mxCell id="OWrpceyA62pf-gKUSuDv-90" value="学部名" style="shape=partialRectangle;connectable=0;fillColor=none;top=0;left=0;bottom=0;right=0;align=left;spacingLeft=6;overflow=hidden;" parent="OWrpceyA62pf-gKUSuDv-88" vertex="1">
                    <mxGeometry x="30" width="150" height="30" as="geometry">
                        <mxRectangle width="150" height="30" as="alternateBounds"/>
                    </mxGeometry>
                </mxCell>
                <mxCell id="OWrpceyA62pf-gKUSuDv-91" value="" style="shape=tableRow;horizontal=0;startSize=0;swimlaneHead=0;swimlaneBody=0;fillColor=none;collapsible=0;dropTarget=0;points=[[0,0.5],[1,0.5]];portConstraint=eastwest;top=0;left=0;right=0;bottom=0;" parent="OWrpceyA62pf-gKUSuDv-81" vertex="1">
                    <mxGeometry y="120" width="180" height="340" as="geometry"/>
                </mxCell>
                <mxCell id="OWrpceyA62pf-gKUSuDv-92" value="" style="shape=partialRectangle;connectable=0;fillColor=none;top=0;left=0;bottom=0;right=0;editable=1;overflow=hidden;" parent="OWrpceyA62pf-gKUSuDv-91" vertex="1">
                    <mxGeometry width="30" height="340" as="geometry">
                        <mxRectangle width="30" height="340" as="alternateBounds"/>
                    </mxGeometry>
                </mxCell>
                <mxCell id="OWrpceyA62pf-gKUSuDv-93" value="" style="shape=partialRectangle;connectable=0;fillColor=none;top=0;left=0;bottom=0;right=0;align=left;spacingLeft=6;overflow=hidden;" parent="OWrpceyA62pf-gKUSuDv-91" vertex="1">
                    <mxGeometry x="30" width="150" height="340" as="geometry">
                        <mxRectangle width="150" height="340" as="alternateBounds"/>
                    </mxGeometry>
                </mxCell>
                <mxCell id="OWrpceyA62pf-gKUSuDv-94" value="学科名" style="shape=partialRectangle;connectable=0;fillColor=none;top=0;left=0;bottom=0;right=0;align=left;spacingLeft=6;overflow=hidden;" parent="OWrpceyA62pf-gKUSuDv-1" vertex="1">
                    <mxGeometry x="1040" y="365" width="150" height="30" as="geometry">
                        <mxRectangle width="150" height="30" as="alternateBounds"/>
                    </mxGeometry>
                </mxCell>
                <mxCell id="OWrpceyA62pf-gKUSuDv-95" value="偏差値" style="shape=partialRectangle;connectable=0;fillColor=none;top=0;left=0;bottom=0;right=0;align=left;spacingLeft=6;overflow=hidden;" parent="OWrpceyA62pf-gKUSuDv-1" vertex="1">
                    <mxGeometry x="1040" y="395" width="150" height="30" as="geometry">
                        <mxRectangle width="150" height="30" as="alternateBounds"/>
                    </mxGeometry>
                </mxCell>
                <mxCell id="OWrpceyA62pf-gKUSuDv-96" value="所在地" style="shape=partialRectangle;connectable=0;fillColor=none;top=0;left=0;bottom=0;right=0;align=left;spacingLeft=6;overflow=hidden;" parent="OWrpceyA62pf-gKUSuDv-1" vertex="1">
                    <mxGeometry x="1040" y="425" width="150" height="30" as="geometry">
                        <mxRectangle width="150" height="30" as="alternateBounds"/>
                    </mxGeometry>
                </mxCell>
                <mxCell id="OWrpceyA62pf-gKUSuDv-97" value="地域" style="shape=partialRectangle;connectable=0;fillColor=none;top=0;left=0;bottom=0;right=0;align=left;spacingLeft=6;overflow=hidden;" parent="OWrpceyA62pf-gKUSuDv-1" vertex="1">
                    <mxGeometry x="1040" y="455" width="150" height="30" as="geometry">
                        <mxRectangle width="150" height="30" as="alternateBounds"/>
                    </mxGeometry>
                </mxCell>
                <mxCell id="OWrpceyA62pf-gKUSuDv-98" value="学部系統" style="shape=partialRectangle;connectable=0;fillColor=none;top=0;left=0;bottom=0;right=0;align=left;spacingLeft=6;overflow=hidden;" parent="OWrpceyA62pf-gKUSuDv-1" vertex="1">
                    <mxGeometry x="1040" y="485" width="150" height="30" as="geometry">
                        <mxRectangle width="150" height="30" as="alternateBounds"/>
                    </mxGeometry>
                </mxCell>
                <mxCell id="OWrpceyA62pf-gKUSuDv-99" value="大学コード" style="shape=partialRectangle;connectable=0;fillColor=none;top=0;left=0;bottom=0;right=0;align=left;spacingLeft=6;overflow=hidden;" parent="OWrpceyA62pf-gKUSuDv-1" vertex="1">
                    <mxGeometry x="1040" y="515" width="150" height="30" as="geometry">
                        <mxRectangle width="150" height="30" as="alternateBounds"/>
                    </mxGeometry>
                </mxCell>
                <mxCell id="OWrpceyA62pf-gKUSuDv-100" value="学部コード" style="shape=partialRectangle;connectable=0;fillColor=none;top=0;left=0;bottom=0;right=0;align=left;spacingLeft=6;overflow=hidden;" parent="OWrpceyA62pf-gKUSuDv-1" vertex="1">
                    <mxGeometry x="1040" y="550" width="150" height="30" as="geometry">
                        <mxRectangle width="150" height="30" as="alternateBounds"/>
                    </mxGeometry>
                </mxCell>
                <mxCell id="OWrpceyA62pf-gKUSuDv-101" value="説明" style="shape=partialRectangle;connectable=0;fillColor=none;top=0;left=0;bottom=0;right=0;align=left;spacingLeft=6;overflow=hidden;" parent="OWrpceyA62pf-gKUSuDv-1" vertex="1">
                    <mxGeometry x="1040" y="580" width="150" height="30" as="geometry">
                        <mxRectangle width="150" height="30" as="alternateBounds"/>
                    </mxGeometry>
                </mxCell>
                <mxCell id="OWrpceyA62pf-gKUSuDv-102" value="定員" style="shape=partialRectangle;connectable=0;fillColor=none;top=0;left=0;bottom=0;right=0;align=left;spacingLeft=6;overflow=hidden;" parent="OWrpceyA62pf-gKUSuDv-1" vertex="1">
                    <mxGeometry x="1040" y="610" width="150" height="30" as="geometry">
                        <mxRectangle width="150" height="30" as="alternateBounds"/>
                    </mxGeometry>
                </mxCell>
                <mxCell id="OWrpceyA62pf-gKUSuDv-103" value="国私区分" style="shape=partialRectangle;connectable=0;fillColor=none;top=0;left=0;bottom=0;right=0;align=left;spacingLeft=6;overflow=hidden;" parent="OWrpceyA62pf-gKUSuDv-1" vertex="1">
                    <mxGeometry x="1040" y="640" width="150" height="30" as="geometry">
                        <mxRectangle width="150" height="30" as="alternateBounds"/>
                    </mxGeometry>
                </mxCell>
                <mxCell id="OWrpceyA62pf-gKUSuDv-104" value="学科系統" style="shape=partialRectangle;connectable=0;fillColor=none;top=0;left=0;bottom=0;right=0;align=left;spacingLeft=6;overflow=hidden;" parent="OWrpceyA62pf-gKUSuDv-1" vertex="1">
                    <mxGeometry x="1040" y="670" width="150" height="30" as="geometry">
                        <mxRectangle width="150" height="30" as="alternateBounds"/>
                    </mxGeometry>
                </mxCell>
                <mxCell id="OWrpceyA62pf-gKUSuDv-105" value="RelationShip" style="shape=table;startSize=30;container=1;collapsible=1;childLayout=tableLayout;fixedRows=1;rowLines=0;fontStyle=1;align=center;resizeLast=1;" parent="OWrpceyA62pf-gKUSuDv-1" vertex="1">
                    <mxGeometry x="680" y="400" width="180" height="110" as="geometry"/>
                </mxCell>
                <mxCell id="OWrpceyA62pf-gKUSuDv-106" value="" style="shape=tableRow;horizontal=0;startSize=0;swimlaneHead=0;swimlaneBody=0;fillColor=none;collapsible=0;dropTarget=0;points=[[0,0.5],[1,0.5]];portConstraint=eastwest;top=0;left=0;right=0;bottom=1;" parent="OWrpceyA62pf-gKUSuDv-105" vertex="1">
                    <mxGeometry y="30" width="180" height="80" as="geometry"/>
                </mxCell>
                <mxCell id="OWrpceyA62pf-gKUSuDv-107" value="PK&#10;FK&#10;FK&#10;" style="shape=partialRectangle;connectable=0;fillColor=none;top=0;left=0;bottom=0;right=0;fontStyle=1;overflow=hidden;" parent="OWrpceyA62pf-gKUSuDv-106" vertex="1">
                    <mxGeometry width="30" height="80" as="geometry">
                        <mxRectangle width="30" height="80" as="alternateBounds"/>
                    </mxGeometry>
                </mxCell>
                <mxCell id="OWrpceyA62pf-gKUSuDv-108" value="id&#10;follower_id&#10;followed_id" style="shape=partialRectangle;connectable=0;fillColor=none;top=0;left=0;bottom=0;right=0;align=left;spacingLeft=6;fontStyle=5;overflow=hidden;" parent="OWrpceyA62pf-gKUSuDv-106" vertex="1">
                    <mxGeometry x="30" width="150" height="80" as="geometry">
                        <mxRectangle width="150" height="80" as="alternateBounds"/>
                    </mxGeometry>
                </mxCell>
                <mxCell id="OWrpceyA62pf-gKUSuDv-109" value="RoomUser" style="shape=table;startSize=30;container=1;collapsible=1;childLayout=tableLayout;fixedRows=1;rowLines=0;fontStyle=1;align=center;resizeLast=1;" parent="OWrpceyA62pf-gKUSuDv-1" vertex="1">
                    <mxGeometry x="680" y="800" width="180" height="110" as="geometry"/>
                </mxCell>
                <mxCell id="OWrpceyA62pf-gKUSuDv-110" value="" style="shape=tableRow;horizontal=0;startSize=0;swimlaneHead=0;swimlaneBody=0;fillColor=none;collapsible=0;dropTarget=0;points=[[0,0.5],[1,0.5]];portConstraint=eastwest;top=0;left=0;right=0;bottom=1;" parent="OWrpceyA62pf-gKUSuDv-109" vertex="1">
                    <mxGeometry y="30" width="180" height="80" as="geometry"/>
                </mxCell>
                <mxCell id="OWrpceyA62pf-gKUSuDv-111" value="PK&#10;FK&#10;FK&#10;" style="shape=partialRectangle;connectable=0;fillColor=none;top=0;left=0;bottom=0;right=0;fontStyle=1;overflow=hidden;" parent="OWrpceyA62pf-gKUSuDv-110" vertex="1">
                    <mxGeometry width="30" height="80" as="geometry">
                        <mxRectangle width="30" height="80" as="alternateBounds"/>
                    </mxGeometry>
                </mxCell>
                <mxCell id="OWrpceyA62pf-gKUSuDv-112" value="id&#10;user_id&#10;ルーム_id" style="shape=partialRectangle;connectable=0;fillColor=none;top=0;left=0;bottom=0;right=0;align=left;spacingLeft=6;fontStyle=5;overflow=hidden;" parent="OWrpceyA62pf-gKUSuDv-110" vertex="1">
                    <mxGeometry x="30" width="150" height="80" as="geometry">
                        <mxRectangle width="150" height="80" as="alternateBounds"/>
                    </mxGeometry>
                </mxCell>
                <mxCell id="OWrpceyA62pf-gKUSuDv-113" value="Room" style="shape=table;startSize=30;container=1;collapsible=1;childLayout=tableLayout;fixedRows=1;rowLines=0;fontStyle=1;align=center;resizeLast=1;" parent="OWrpceyA62pf-gKUSuDv-1" vertex="1">
                    <mxGeometry x="950" y="830" width="180" height="80" as="geometry"/>
                </mxCell>
                <mxCell id="OWrpceyA62pf-gKUSuDv-114" value="" style="shape=tableRow;horizontal=0;startSize=0;swimlaneHead=0;swimlaneBody=0;fillColor=none;collapsible=0;dropTarget=0;points=[[0,0.5],[1,0.5]];portConstraint=eastwest;top=0;left=0;right=0;bottom=1;" parent="OWrpceyA62pf-gKUSuDv-113" vertex="1">
                    <mxGeometry y="30" width="180" height="50" as="geometry"/>
                </mxCell>
                <mxCell id="OWrpceyA62pf-gKUSuDv-115" value="PK" style="shape=partialRectangle;connectable=0;fillColor=none;top=0;left=0;bottom=0;right=0;fontStyle=1;overflow=hidden;" parent="OWrpceyA62pf-gKUSuDv-114" vertex="1">
                    <mxGeometry width="30" height="50" as="geometry">
                        <mxRectangle width="30" height="50" as="alternateBounds"/>
                    </mxGeometry>
                </mxCell>
                <mxCell id="OWrpceyA62pf-gKUSuDv-116" value="ルームid" style="shape=partialRectangle;connectable=0;fillColor=none;top=0;left=0;bottom=0;right=0;align=left;spacingLeft=6;fontStyle=5;overflow=hidden;" parent="OWrpceyA62pf-gKUSuDv-114" vertex="1">
                    <mxGeometry x="30" width="150" height="50" as="geometry">
                        <mxRectangle width="150" height="50" as="alternateBounds"/>
                    </mxGeometry>
                </mxCell>
                <mxCell id="OWrpceyA62pf-gKUSuDv-117" value="Like" style="shape=table;startSize=30;container=1;collapsible=1;childLayout=tableLayout;fixedRows=1;rowLines=0;fontStyle=1;align=center;resizeLast=1;" parent="OWrpceyA62pf-gKUSuDv-1" vertex="1">
                    <mxGeometry x="680" y="600" width="180" height="110" as="geometry"/>
                </mxCell>
                <mxCell id="OWrpceyA62pf-gKUSuDv-118" value="" style="shape=tableRow;horizontal=0;startSize=0;swimlaneHead=0;swimlaneBody=0;fillColor=none;collapsible=0;dropTarget=0;points=[[0,0.5],[1,0.5]];portConstraint=eastwest;top=0;left=0;right=0;bottom=1;" parent="OWrpceyA62pf-gKUSuDv-117" vertex="1">
                    <mxGeometry y="30" width="180" height="80" as="geometry"/>
                </mxCell>
                <mxCell id="OWrpceyA62pf-gKUSuDv-119" value="PK&#10;FK&#10;FK&#10;" style="shape=partialRectangle;connectable=0;fillColor=none;top=0;left=0;bottom=0;right=0;fontStyle=1;overflow=hidden;" parent="OWrpceyA62pf-gKUSuDv-118" vertex="1">
                    <mxGeometry width="30" height="80" as="geometry">
                        <mxRectangle width="30" height="80" as="alternateBounds"/>
                    </mxGeometry>
                </mxCell>
                <mxCell id="OWrpceyA62pf-gKUSuDv-120" value="id&#10;from_user_id&#10;to_user_id" style="shape=partialRectangle;connectable=0;fillColor=none;top=0;left=0;bottom=0;right=0;align=left;spacingLeft=6;fontStyle=5;overflow=hidden;" parent="OWrpceyA62pf-gKUSuDv-118" vertex="1">
                    <mxGeometry x="30" width="150" height="80" as="geometry">
                        <mxRectangle width="150" height="80" as="alternateBounds"/>
                    </mxGeometry>
                </mxCell>
                <mxCell id="OWrpceyA62pf-gKUSuDv-121" value="Message" style="shape=table;startSize=30;container=1;collapsible=1;childLayout=tableLayout;fixedRows=1;rowLines=0;fontStyle=1;align=center;resizeLast=1;" parent="OWrpceyA62pf-gKUSuDv-1" vertex="1">
                    <mxGeometry x="680" y="960" width="178" height="140" as="geometry"/>
                </mxCell>
                <mxCell id="OWrpceyA62pf-gKUSuDv-122" value="" style="shape=tableRow;horizontal=0;startSize=0;swimlaneHead=0;swimlaneBody=0;fillColor=none;collapsible=0;dropTarget=0;points=[[0,0.5],[1,0.5]];portConstraint=eastwest;top=0;left=0;right=0;bottom=1;" parent="OWrpceyA62pf-gKUSuDv-121" vertex="1">
                    <mxGeometry y="30" width="178" height="80" as="geometry"/>
                </mxCell>
                <mxCell id="OWrpceyA62pf-gKUSuDv-123" value="PK&#10;&#10;FK&#10;&#10;FK" style="shape=partialRectangle;connectable=0;fillColor=none;top=0;left=0;bottom=0;right=0;fontStyle=1;overflow=hidden;" parent="OWrpceyA62pf-gKUSuDv-122" vertex="1">
                    <mxGeometry width="30" height="80" as="geometry">
                        <mxRectangle width="30" height="80" as="alternateBounds"/>
                    </mxGeometry>
                </mxCell>
                <mxCell id="OWrpceyA62pf-gKUSuDv-124" value="id&#10;&#10;user_id&#10;&#10;ルーム_id" style="shape=partialRectangle;connectable=0;fillColor=none;top=0;left=0;bottom=0;right=0;align=left;spacingLeft=6;fontStyle=5;overflow=hidden;" parent="OWrpceyA62pf-gKUSuDv-122" vertex="1">
                    <mxGeometry x="30" width="148" height="80" as="geometry">
                        <mxRectangle width="148" height="80" as="alternateBounds"/>
                    </mxGeometry>
                </mxCell>
                <mxCell id="OWrpceyA62pf-gKUSuDv-125" value="" style="shape=tableRow;horizontal=0;startSize=0;swimlaneHead=0;swimlaneBody=0;fillColor=none;collapsible=0;dropTarget=0;points=[[0,0.5],[1,0.5]];portConstraint=eastwest;top=0;left=0;right=0;bottom=0;" parent="OWrpceyA62pf-gKUSuDv-121" vertex="1">
                    <mxGeometry y="110" width="178" height="30" as="geometry"/>
                </mxCell>
                <mxCell id="OWrpceyA62pf-gKUSuDv-126" value="" style="shape=partialRectangle;connectable=0;fillColor=none;top=0;left=0;bottom=0;right=0;editable=1;overflow=hidden;" parent="OWrpceyA62pf-gKUSuDv-125" vertex="1">
                    <mxGeometry width="30" height="30" as="geometry">
                        <mxRectangle width="30" height="30" as="alternateBounds"/>
                    </mxGeometry>
                </mxCell>
                <mxCell id="OWrpceyA62pf-gKUSuDv-127" value="内容" style="shape=partialRectangle;connectable=0;fillColor=none;top=0;left=0;bottom=0;right=0;align=left;spacingLeft=6;overflow=hidden;" parent="OWrpceyA62pf-gKUSuDv-125" vertex="1">
                    <mxGeometry x="30" width="148" height="30" as="geometry">
                        <mxRectangle width="148" height="30" as="alternateBounds"/>
                    </mxGeometry>
                </mxCell>
                <mxCell id="OWrpceyA62pf-gKUSuDv-128" value="" style="edgeStyle=entityRelationEdgeStyle;fontSize=12;html=1;endArrow=ERoneToMany;" parent="OWrpceyA62pf-gKUSuDv-1" edge="1">
                    <mxGeometry width="100" height="100" relative="1" as="geometry">
                        <mxPoint x="360" y="330" as="sourcePoint"/>
                        <mxPoint x="260" y="330" as="targetPoint"/>
                    </mxGeometry>
                </mxCell>
                <mxCell id="OWrpceyA62pf-gKUSuDv-129" value="" style="edgeStyle=entityRelationEdgeStyle;fontSize=12;html=1;endArrow=ERmandOne;startArrow=ERmandOne;entryX=0;entryY=0.5;entryDx=0;entryDy=0;" parent="OWrpceyA62pf-gKUSuDv-1" target="OWrpceyA62pf-gKUSuDv-31" edge="1">
                    <mxGeometry width="100" height="100" relative="1" as="geometry">
                        <mxPoint x="240" y="809" as="sourcePoint"/>
                        <mxPoint x="382.5" y="460" as="targetPoint"/>
                    </mxGeometry>
                </mxCell>
                <mxCell id="OWrpceyA62pf-gKUSuDv-130" value="" style="shape=tableRow;horizontal=0;startSize=0;swimlaneHead=0;swimlaneBody=0;fillColor=none;collapsible=0;dropTarget=0;points=[[0,0.5],[1,0.5]];portConstraint=eastwest;top=0;left=0;right=0;bottom=0;" parent="OWrpceyA62pf-gKUSuDv-1" vertex="1">
                    <mxGeometry x="933" y="1090" width="178" height="20" as="geometry"/>
                </mxCell>
                <mxCell id="OWrpceyA62pf-gKUSuDv-131" value="" style="shape=partialRectangle;connectable=0;fillColor=none;top=0;left=0;bottom=0;right=0;editable=1;overflow=hidden;" parent="OWrpceyA62pf-gKUSuDv-130" vertex="1">
                    <mxGeometry width="30" height="20" as="geometry">
                        <mxRectangle width="30" height="20" as="alternateBounds"/>
                    </mxGeometry>
                </mxCell>
                <mxCell id="OWrpceyA62pf-gKUSuDv-132" value="" style="shape=partialRectangle;connectable=0;fillColor=none;top=0;left=0;bottom=0;right=0;align=left;spacingLeft=6;overflow=hidden;" parent="OWrpceyA62pf-gKUSuDv-130" vertex="1">
                    <mxGeometry x="30" width="148" height="20" as="geometry">
                        <mxRectangle width="148" height="20" as="alternateBounds"/>
                    </mxGeometry>
                </mxCell>
                <mxCell id="OWrpceyA62pf-gKUSuDv-133" value="" style="edgeStyle=entityRelationEdgeStyle;fontSize=12;html=1;endArrow=ERmandOne;startArrow=ERmandOne;" parent="OWrpceyA62pf-gKUSuDv-1" edge="1">
                    <mxGeometry width="100" height="100" relative="1" as="geometry">
                        <mxPoint x="260" y="1140" as="sourcePoint"/>
                        <mxPoint x="390" y="531" as="targetPoint"/>
                    </mxGeometry>
                </mxCell>
                <mxCell id="OWrpceyA62pf-gKUSuDv-134" value="" style="edgeStyle=entityRelationEdgeStyle;fontSize=12;html=1;endArrow=ERmany;startArrow=ERmany;exitX=0.996;exitY=0.661;exitDx=0;exitDy=0;exitPerimeter=0;" parent="OWrpceyA62pf-gKUSuDv-1" source="OWrpceyA62pf-gKUSuDv-71" edge="1">
                    <mxGeometry width="100" height="100" relative="1" as="geometry">
                        <mxPoint x="870" y="329.2" as="sourcePoint"/>
                        <mxPoint x="1010" y="333" as="targetPoint"/>
                    </mxGeometry>
                </mxCell>
                <mxCell id="OWrpceyA62pf-gKUSuDv-135" value="" style="edgeStyle=entityRelationEdgeStyle;fontSize=12;html=1;endArrow=ERmany;startArrow=ERmany;entryX=0.001;entryY=0.621;entryDx=0;entryDy=0;entryPerimeter=0;exitX=1.003;exitY=0.709;exitDx=0;exitDy=0;exitPerimeter=0;" parent="OWrpceyA62pf-gKUSuDv-1" source="OWrpceyA62pf-gKUSuDv-25" target="OWrpceyA62pf-gKUSuDv-71" edge="1">
                    <mxGeometry width="100" height="100" relative="1" as="geometry">
                        <mxPoint x="560" y="330" as="sourcePoint"/>
                        <mxPoint x="670" y="329.20000000000005" as="targetPoint"/>
                    </mxGeometry>
                </mxCell>
                <mxCell id="OWrpceyA62pf-gKUSuDv-136" value="" style="edgeStyle=entityRelationEdgeStyle;fontSize=12;html=1;endArrow=ERoneToMany;entryX=-0.017;entryY=0.001;entryDx=0;entryDy=0;entryPerimeter=0;" parent="OWrpceyA62pf-gKUSuDv-1" target="OWrpceyA62pf-gKUSuDv-106" edge="1">
                    <mxGeometry width="100" height="100" relative="1" as="geometry">
                        <mxPoint x="550" y="430" as="sourcePoint"/>
                        <mxPoint x="670" y="430" as="targetPoint"/>
                    </mxGeometry>
                </mxCell>
                <mxCell id="OWrpceyA62pf-gKUSuDv-137" value="" style="edgeStyle=entityRelationEdgeStyle;fontSize=12;html=1;endArrow=ERoneToMany;entryX=0;entryY=0.25;entryDx=0;entryDy=0;" parent="OWrpceyA62pf-gKUSuDv-1" target="OWrpceyA62pf-gKUSuDv-117" edge="1">
                    <mxGeometry width="100" height="100" relative="1" as="geometry">
                        <mxPoint x="560" y="470" as="sourcePoint"/>
                        <mxPoint x="670" y="624.5999999999999" as="targetPoint"/>
                    </mxGeometry>
                </mxCell>
                <mxCell id="OWrpceyA62pf-gKUSuDv-138" value="" style="edgeStyle=entityRelationEdgeStyle;fontSize=12;html=1;endArrow=ERmany;startArrow=ERmany;" parent="OWrpceyA62pf-gKUSuDv-1" edge="1">
                    <mxGeometry width="100" height="100" relative="1" as="geometry">
                        <mxPoint x="550" y="520" as="sourcePoint"/>
                        <mxPoint x="670" y="880" as="targetPoint"/>
                    </mxGeometry>
                </mxCell>
                <mxCell id="OWrpceyA62pf-gKUSuDv-139" value="" style="edgeStyle=entityRelationEdgeStyle;fontSize=12;html=1;endArrow=ERmany;startArrow=ERmany;" parent="OWrpceyA62pf-gKUSuDv-1" edge="1">
                    <mxGeometry width="100" height="100" relative="1" as="geometry">
                        <mxPoint x="860" y="854.6" as="sourcePoint"/>
                        <mxPoint x="950" y="854.6" as="targetPoint"/>
                    </mxGeometry>
                </mxCell>
                <mxCell id="OWrpceyA62pf-gKUSuDv-140" value="" style="edgeStyle=entityRelationEdgeStyle;fontSize=12;html=1;endArrow=ERmany;" parent="OWrpceyA62pf-gKUSuDv-1" edge="1">
                    <mxGeometry width="100" height="100" relative="1" as="geometry">
                        <mxPoint x="550" y="540" as="sourcePoint"/>
                        <mxPoint x="670" y="1050" as="targetPoint"/>
                    </mxGeometry>
                </mxCell>
                <mxCell id="OWrpceyA62pf-gKUSuDv-154" value="" style="edgeStyle=entityRelationEdgeStyle;fontSize=12;html=1;endArrow=ERmany;" parent="OWrpceyA62pf-gKUSuDv-1" edge="1">
                    <mxGeometry width="100" height="100" relative="1" as="geometry">
                        <mxPoint x="9" y="340" as="sourcePoint"/>
                        <mxPoint x="-61" y="340" as="targetPoint"/>
                    </mxGeometry>
                </mxCell>
                <mxCell id="vorhypG83Ajg2E7g3Um3-3" value="Todo" style="shape=table;startSize=30;container=1;collapsible=1;childLayout=tableLayout;fixedRows=1;rowLines=0;fontStyle=1;align=center;resizeLast=1;" parent="OWrpceyA62pf-gKUSuDv-1" vertex="1">
                    <mxGeometry x="40" y="245" width="180" height="400" as="geometry"/>
                </mxCell>
                <mxCell id="vorhypG83Ajg2E7g3Um3-4" value="" style="shape=tableRow;horizontal=0;startSize=0;swimlaneHead=0;swimlaneBody=0;fillColor=none;collapsible=0;dropTarget=0;points=[[0,0.5],[1,0.5]];portConstraint=eastwest;top=0;left=0;right=0;bottom=1;" parent="vorhypG83Ajg2E7g3Um3-3" vertex="1">
                    <mxGeometry y="30" width="180" height="60" as="geometry"/>
                </mxCell>
                <mxCell id="vorhypG83Ajg2E7g3Um3-5" value="PK&#10;&#10;FK" style="shape=partialRectangle;connectable=0;fillColor=none;top=0;left=0;bottom=0;right=0;fontStyle=1;overflow=hidden;" parent="vorhypG83Ajg2E7g3Um3-4" vertex="1">
                    <mxGeometry width="30" height="60" as="geometry">
                        <mxRectangle width="30" height="60" as="alternateBounds"/>
                    </mxGeometry>
                </mxCell>
                <mxCell id="vorhypG83Ajg2E7g3Um3-6" value="Todoid&#10;&#10;user_id" style="shape=partialRectangle;connectable=0;fillColor=none;top=0;left=0;bottom=0;right=0;align=left;spacingLeft=6;fontStyle=5;overflow=hidden;" parent="vorhypG83Ajg2E7g3Um3-4" vertex="1">
                    <mxGeometry x="30" width="150" height="60" as="geometry">
                        <mxRectangle width="150" height="60" as="alternateBounds"/>
                    </mxGeometry>
                </mxCell>
                <mxCell id="vorhypG83Ajg2E7g3Um3-7" value="" style="shape=tableRow;horizontal=0;startSize=0;swimlaneHead=0;swimlaneBody=0;fillColor=none;collapsible=0;dropTarget=0;points=[[0,0.5],[1,0.5]];portConstraint=eastwest;top=0;left=0;right=0;bottom=0;" parent="vorhypG83Ajg2E7g3Um3-3" vertex="1">
                    <mxGeometry y="90" width="180" height="30" as="geometry"/>
                </mxCell>
                <mxCell id="vorhypG83Ajg2E7g3Um3-8" value="" style="shape=partialRectangle;connectable=0;fillColor=none;top=0;left=0;bottom=0;right=0;editable=1;overflow=hidden;" parent="vorhypG83Ajg2E7g3Um3-7" vertex="1">
                    <mxGeometry width="30" height="30" as="geometry">
                        <mxRectangle width="30" height="30" as="alternateBounds"/>
                    </mxGeometry>
                </mxCell>
                <mxCell id="vorhypG83Ajg2E7g3Um3-9" value="教科" style="shape=partialRectangle;connectable=0;fillColor=none;top=0;left=0;bottom=0;right=0;align=left;spacingLeft=6;overflow=hidden;" parent="vorhypG83Ajg2E7g3Um3-7" vertex="1">
                    <mxGeometry x="30" width="150" height="30" as="geometry">
                        <mxRectangle width="150" height="30" as="alternateBounds"/>
                    </mxGeometry>
                </mxCell>
                <mxCell id="vorhypG83Ajg2E7g3Um3-10" value="" style="shape=tableRow;horizontal=0;startSize=0;swimlaneHead=0;swimlaneBody=0;fillColor=none;collapsible=0;dropTarget=0;points=[[0,0.5],[1,0.5]];portConstraint=eastwest;top=0;left=0;right=0;bottom=0;" parent="vorhypG83Ajg2E7g3Um3-3" vertex="1">
                    <mxGeometry y="120" width="180" height="30" as="geometry"/>
                </mxCell>
                <mxCell id="vorhypG83Ajg2E7g3Um3-11" value="" style="shape=partialRectangle;connectable=0;fillColor=none;top=0;left=0;bottom=0;right=0;editable=1;overflow=hidden;" parent="vorhypG83Ajg2E7g3Um3-10" vertex="1">
                    <mxGeometry width="30" height="30" as="geometry">
                        <mxRectangle width="30" height="30" as="alternateBounds"/>
                    </mxGeometry>
                </mxCell>
                <mxCell id="vorhypG83Ajg2E7g3Um3-12" value="タイトル" style="shape=partialRectangle;connectable=0;fillColor=none;top=0;left=0;bottom=0;right=0;align=left;spacingLeft=6;overflow=hidden;" parent="vorhypG83Ajg2E7g3Um3-10" vertex="1">
                    <mxGeometry x="30" width="150" height="30" as="geometry">
                        <mxRectangle width="150" height="30" as="alternateBounds"/>
                    </mxGeometry>
                </mxCell>
                <mxCell id="vorhypG83Ajg2E7g3Um3-13" value="" style="shape=tableRow;horizontal=0;startSize=0;swimlaneHead=0;swimlaneBody=0;fillColor=none;collapsible=0;dropTarget=0;points=[[0,0.5],[1,0.5]];portConstraint=eastwest;top=0;left=0;right=0;bottom=0;" parent="vorhypG83Ajg2E7g3Um3-3" vertex="1">
                    <mxGeometry y="150" width="180" height="250" as="geometry"/>
                </mxCell>
                <mxCell id="vorhypG83Ajg2E7g3Um3-14" value="" style="shape=partialRectangle;connectable=0;fillColor=none;top=0;left=0;bottom=0;right=0;editable=1;overflow=hidden;" parent="vorhypG83Ajg2E7g3Um3-13" vertex="1">
                    <mxGeometry width="30" height="250" as="geometry">
                        <mxRectangle width="30" height="250" as="alternateBounds"/>
                    </mxGeometry>
                </mxCell>
                <mxCell id="vorhypG83Ajg2E7g3Um3-15" value="" style="shape=partialRectangle;connectable=0;fillColor=none;top=0;left=0;bottom=0;right=0;align=left;spacingLeft=6;overflow=hidden;" parent="vorhypG83Ajg2E7g3Um3-13" vertex="1">
                    <mxGeometry x="30" width="150" height="250" as="geometry">
                        <mxRectangle width="150" height="250" as="alternateBounds"/>
                    </mxGeometry>
                </mxCell>
                <mxCell id="vorhypG83Ajg2E7g3Um3-16" value="感想" style="shape=partialRectangle;connectable=0;fillColor=none;top=0;left=0;bottom=0;right=0;align=left;spacingLeft=6;overflow=hidden;" parent="OWrpceyA62pf-gKUSuDv-1" vertex="1">
                    <mxGeometry x="70" y="395" width="150" height="30" as="geometry">
                        <mxRectangle width="150" height="30" as="alternateBounds"/>
                    </mxGeometry>
                </mxCell>
                <mxCell id="vorhypG83Ajg2E7g3Um3-17" value="状況" style="shape=partialRectangle;connectable=0;fillColor=none;top=0;left=0;bottom=0;right=0;align=left;spacingLeft=6;overflow=hidden;" parent="OWrpceyA62pf-gKUSuDv-1" vertex="1">
                    <mxGeometry x="70" y="425" width="150" height="30" as="geometry">
                        <mxRectangle width="150" height="30" as="alternateBounds"/>
                    </mxGeometry>
                </mxCell>
                <mxCell id="vorhypG83Ajg2E7g3Um3-18" value="予定学習時間" style="shape=partialRectangle;connectable=0;fillColor=none;top=0;left=0;bottom=0;right=0;align=left;spacingLeft=6;overflow=hidden;" parent="OWrpceyA62pf-gKUSuDv-1" vertex="1">
                    <mxGeometry x="70" y="455" width="150" height="30" as="geometry">
                        <mxRectangle width="150" height="30" as="alternateBounds"/>
                    </mxGeometry>
                </mxCell>
                <mxCell id="vorhypG83Ajg2E7g3Um3-19" value="期限" style="shape=partialRectangle;connectable=0;fillColor=none;top=0;left=0;bottom=0;right=0;align=left;spacingLeft=6;overflow=hidden;" parent="OWrpceyA62pf-gKUSuDv-1" vertex="1">
                    <mxGeometry x="70" y="485" width="150" height="30" as="geometry">
                        <mxRectangle width="150" height="30" as="alternateBounds"/>
                    </mxGeometry>
                </mxCell>
                <mxCell id="vorhypG83Ajg2E7g3Um3-20" value="重要度" style="shape=partialRectangle;connectable=0;fillColor=none;top=0;left=0;bottom=0;right=0;align=left;spacingLeft=6;overflow=hidden;" parent="OWrpceyA62pf-gKUSuDv-1" vertex="1">
                    <mxGeometry x="70" y="515" width="150" height="30" as="geometry">
                        <mxRectangle width="150" height="30" as="alternateBounds"/>
                    </mxGeometry>
                </mxCell>
                <mxCell id="vorhypG83Ajg2E7g3Um3-21" value="星評価" style="shape=partialRectangle;connectable=0;fillColor=none;top=0;left=0;bottom=0;right=0;align=left;spacingLeft=6;overflow=hidden;" parent="OWrpceyA62pf-gKUSuDv-1" vertex="1">
                    <mxGeometry x="70" y="545" width="150" height="30" as="geometry">
                        <mxRectangle width="150" height="30" as="alternateBounds"/>
                    </mxGeometry>
                </mxCell>
                <mxCell id="vorhypG83Ajg2E7g3Um3-23" value="学習タイプ" style="shape=partialRectangle;connectable=0;fillColor=none;top=0;left=0;bottom=0;right=0;align=left;spacingLeft=6;overflow=hidden;" parent="OWrpceyA62pf-gKUSuDv-1" vertex="1">
                    <mxGeometry x="70" y="573" width="150" height="32" as="geometry">
                        <mxRectangle width="150" height="30" as="alternateBounds"/>
                    </mxGeometry>
                </mxCell>
                <mxCell id="vorhypG83Ajg2E7g3Um3-24" value="総学習時間" style="shape=partialRectangle;connectable=0;fillColor=none;top=0;left=0;bottom=0;right=0;align=left;spacingLeft=6;overflow=hidden;" parent="OWrpceyA62pf-gKUSuDv-1" vertex="1">
                    <mxGeometry x="70" y="604" width="150" height="30" as="geometry">
                        <mxRectangle width="150" height="30" as="alternateBounds"/>
                    </mxGeometry>
                </mxCell>
                <mxCell id="vorhypG83Ajg2E7g3Um3-28" value="郵便番号" style="shape=partialRectangle;connectable=0;fillColor=none;top=0;left=0;bottom=0;right=0;align=left;spacingLeft=6;overflow=hidden;" parent="OWrpceyA62pf-gKUSuDv-1" vertex="1">
                    <mxGeometry x="112.5" y="984.5" width="130" height="30" as="geometry">
                        <mxRectangle width="130" height="30" as="alternateBounds"/>
                    </mxGeometry>
                </mxCell>
                <mxCell id="vorhypG83Ajg2E7g3Um3-29" value="Telephone" style="shape=table;startSize=30;container=1;collapsible=1;childLayout=tableLayout;fixedRows=1;rowLines=0;fontStyle=1;align=center;resizeLast=1;" parent="OWrpceyA62pf-gKUSuDv-1" vertex="1">
                    <mxGeometry x="67.5" y="1070" width="175" height="170" as="geometry"/>
                </mxCell>
                <mxCell id="vorhypG83Ajg2E7g3Um3-30" value="" style="shape=tableRow;horizontal=0;startSize=0;swimlaneHead=0;swimlaneBody=0;fillColor=none;collapsible=0;dropTarget=0;points=[[0,0.5],[1,0.5]];portConstraint=eastwest;top=0;left=0;right=0;bottom=1;" parent="vorhypG83Ajg2E7g3Um3-29" vertex="1">
                    <mxGeometry y="30" width="175" height="60" as="geometry"/>
                </mxCell>
                <mxCell id="vorhypG83Ajg2E7g3Um3-31" value="PK&#10;&#10;FK" style="shape=partialRectangle;connectable=0;fillColor=none;top=0;left=0;bottom=0;right=0;fontStyle=1;overflow=hidden;" parent="vorhypG83Ajg2E7g3Um3-30" vertex="1">
                    <mxGeometry width="30" height="60" as="geometry">
                        <mxRectangle width="30" height="60" as="alternateBounds"/>
                    </mxGeometry>
                </mxCell>
                <mxCell id="vorhypG83Ajg2E7g3Um3-32" value="電話番号iD&#10;&#10;user_id&#10;" style="shape=partialRectangle;connectable=0;fillColor=none;top=0;left=0;bottom=0;right=0;align=left;spacingLeft=6;fontStyle=5;overflow=hidden;" parent="vorhypG83Ajg2E7g3Um3-30" vertex="1">
                    <mxGeometry x="30" width="145" height="60" as="geometry">
                        <mxRectangle width="145" height="60" as="alternateBounds"/>
                    </mxGeometry>
                </mxCell>
                <mxCell id="vorhypG83Ajg2E7g3Um3-33" value="" style="shape=tableRow;horizontal=0;startSize=0;swimlaneHead=0;swimlaneBody=0;fillColor=none;collapsible=0;dropTarget=0;points=[[0,0.5],[1,0.5]];portConstraint=eastwest;top=0;left=0;right=0;bottom=0;" parent="vorhypG83Ajg2E7g3Um3-29" vertex="1">
                    <mxGeometry y="90" width="175" height="30" as="geometry"/>
                </mxCell>
                <mxCell id="vorhypG83Ajg2E7g3Um3-34" value="" style="shape=partialRectangle;connectable=0;fillColor=none;top=0;left=0;bottom=0;right=0;editable=1;overflow=hidden;" parent="vorhypG83Ajg2E7g3Um3-33" vertex="1">
                    <mxGeometry width="30" height="30" as="geometry">
                        <mxRectangle width="30" height="30" as="alternateBounds"/>
                    </mxGeometry>
                </mxCell>
                <mxCell id="vorhypG83Ajg2E7g3Um3-35" value="携帯番号" style="shape=partialRectangle;connectable=0;fillColor=none;top=0;left=0;bottom=0;right=0;align=left;spacingLeft=6;overflow=hidden;" parent="vorhypG83Ajg2E7g3Um3-33" vertex="1">
                    <mxGeometry x="30" width="145" height="30" as="geometry">
                        <mxRectangle width="145" height="30" as="alternateBounds"/>
                    </mxGeometry>
                </mxCell>
                <mxCell id="vorhypG83Ajg2E7g3Um3-36" value="" style="shape=tableRow;horizontal=0;startSize=0;swimlaneHead=0;swimlaneBody=0;fillColor=none;collapsible=0;dropTarget=0;points=[[0,0.5],[1,0.5]];portConstraint=eastwest;top=0;left=0;right=0;bottom=0;" parent="vorhypG83Ajg2E7g3Um3-29" vertex="1">
                    <mxGeometry y="120" width="175" height="30" as="geometry"/>
                </mxCell>
                <mxCell id="vorhypG83Ajg2E7g3Um3-37" value="" style="shape=partialRectangle;connectable=0;fillColor=none;top=0;left=0;bottom=0;right=0;editable=1;overflow=hidden;" parent="vorhypG83Ajg2E7g3Um3-36" vertex="1">
                    <mxGeometry width="30" height="30" as="geometry">
                        <mxRectangle width="30" height="30" as="alternateBounds"/>
                    </mxGeometry>
                </mxCell>
                <mxCell id="vorhypG83Ajg2E7g3Um3-38" value="固定電話番号" style="shape=partialRectangle;connectable=0;fillColor=none;top=0;left=0;bottom=0;right=0;align=left;spacingLeft=6;overflow=hidden;" parent="vorhypG83Ajg2E7g3Um3-36" vertex="1">
                    <mxGeometry x="30" width="145" height="30" as="geometry">
                        <mxRectangle width="145" height="30" as="alternateBounds"/>
                    </mxGeometry>
                </mxCell>
                <mxCell id="vorhypG83Ajg2E7g3Um3-39" value="" style="shape=tableRow;horizontal=0;startSize=0;swimlaneHead=0;swimlaneBody=0;fillColor=none;collapsible=0;dropTarget=0;points=[[0,0.5],[1,0.5]];portConstraint=eastwest;top=0;left=0;right=0;bottom=0;" parent="vorhypG83Ajg2E7g3Um3-29" vertex="1">
                    <mxGeometry y="150" width="175" height="20" as="geometry"/>
                </mxCell>
                <mxCell id="vorhypG83Ajg2E7g3Um3-40" value="" style="shape=partialRectangle;connectable=0;fillColor=none;top=0;left=0;bottom=0;right=0;editable=1;overflow=hidden;" parent="vorhypG83Ajg2E7g3Um3-39" vertex="1">
                    <mxGeometry width="30" height="20" as="geometry">
                        <mxRectangle width="30" height="20" as="alternateBounds"/>
                    </mxGeometry>
                </mxCell>
                <mxCell id="vorhypG83Ajg2E7g3Um3-41" value="" style="shape=partialRectangle;connectable=0;fillColor=none;top=0;left=0;bottom=0;right=0;align=left;spacingLeft=6;overflow=hidden;" parent="vorhypG83Ajg2E7g3Um3-39" vertex="1">
                    <mxGeometry x="30" width="145" height="20" as="geometry">
                        <mxRectangle width="145" height="20" as="alternateBounds"/>
                    </mxGeometry>
                </mxCell>
            </root>
        </mxGraphModel>
    </diagram>
    <diagram id="SLxw6UtW_9qOfETsjLia" name="物理モデル">
        <mxGraphModel dx="2694" dy="1195" grid="1" gridSize="10" guides="1" tooltips="1" connect="1" arrows="1" fold="1" page="1" pageScale="1" pageWidth="827" pageHeight="1169" math="0" shadow="0">
            <root>
                <mxCell id="0"/>
                <mxCell id="1" parent="0"/>
                <mxCell id="142" value="User" style="shape=table;startSize=30;container=1;collapsible=1;childLayout=tableLayout;fixedRows=1;rowLines=0;fontStyle=1;align=center;resizeLast=1;" parent="1" vertex="1">
                    <mxGeometry x="390" y="250" width="430" height="300" as="geometry"/>
                </mxCell>
                <mxCell id="143" value="" style="shape=tableRow;horizontal=0;startSize=0;swimlaneHead=0;swimlaneBody=0;fillColor=none;collapsible=0;dropTarget=0;points=[[0,0.5],[1,0.5]];portConstraint=eastwest;top=0;left=0;right=0;bottom=1;" parent="142" vertex="1">
                    <mxGeometry y="30" width="430" height="30" as="geometry"/>
                </mxCell>
                <mxCell id="144" value="PK" style="shape=partialRectangle;connectable=0;fillColor=none;top=0;left=0;bottom=0;right=0;fontStyle=1;overflow=hidden;" parent="143" vertex="1">
                    <mxGeometry width="30" height="30" as="geometry">
                        <mxRectangle width="30" height="30" as="alternateBounds"/>
                    </mxGeometry>
                </mxCell>
                <mxCell id="145" value="id　(INT)" style="shape=partialRectangle;connectable=0;fillColor=none;top=0;left=0;bottom=0;right=0;align=left;spacingLeft=6;fontStyle=5;overflow=hidden;" parent="143" vertex="1">
                    <mxGeometry x="30" width="400" height="30" as="geometry">
                        <mxRectangle width="400" height="30" as="alternateBounds"/>
                    </mxGeometry>
                </mxCell>
                <mxCell id="146" value="" style="shape=tableRow;horizontal=0;startSize=0;swimlaneHead=0;swimlaneBody=0;fillColor=none;collapsible=0;dropTarget=0;points=[[0,0.5],[1,0.5]];portConstraint=eastwest;top=0;left=0;right=0;bottom=0;" parent="142" vertex="1">
                    <mxGeometry y="60" width="430" height="30" as="geometry"/>
                </mxCell>
                <mxCell id="147" value="" style="shape=partialRectangle;connectable=0;fillColor=none;top=0;left=0;bottom=0;right=0;editable=1;overflow=hidden;" parent="146" vertex="1">
                    <mxGeometry width="30" height="30" as="geometry">
                        <mxRectangle width="30" height="30" as="alternateBounds"/>
                    </mxGeometry>
                </mxCell>
                <mxCell id="148" value="family_name　(VARCHAR)" style="shape=partialRectangle;connectable=0;fillColor=none;top=0;left=0;bottom=0;right=0;align=left;spacingLeft=6;overflow=hidden;" parent="146" vertex="1">
                    <mxGeometry x="30" width="400" height="30" as="geometry">
                        <mxRectangle width="400" height="30" as="alternateBounds"/>
                    </mxGeometry>
                </mxCell>
                <mxCell id="149" value="" style="shape=tableRow;horizontal=0;startSize=0;swimlaneHead=0;swimlaneBody=0;fillColor=none;collapsible=0;dropTarget=0;points=[[0,0.5],[1,0.5]];portConstraint=eastwest;top=0;left=0;right=0;bottom=0;" parent="142" vertex="1">
                    <mxGeometry y="90" width="430" height="30" as="geometry"/>
                </mxCell>
                <mxCell id="150" value="" style="shape=partialRectangle;connectable=0;fillColor=none;top=0;left=0;bottom=0;right=0;editable=1;overflow=hidden;" parent="149" vertex="1">
                    <mxGeometry width="30" height="30" as="geometry">
                        <mxRectangle width="30" height="30" as="alternateBounds"/>
                    </mxGeometry>
                </mxCell>
                <mxCell id="151" value="family_name_kana　(VARCHAR)" style="shape=partialRectangle;connectable=0;fillColor=none;top=0;left=0;bottom=0;right=0;align=left;spacingLeft=6;overflow=hidden;" parent="149" vertex="1">
                    <mxGeometry x="30" width="400" height="30" as="geometry">
                        <mxRectangle width="400" height="30" as="alternateBounds"/>
                    </mxGeometry>
                </mxCell>
                <mxCell id="152" value="" style="shape=tableRow;horizontal=0;startSize=0;swimlaneHead=0;swimlaneBody=0;fillColor=none;collapsible=0;dropTarget=0;points=[[0,0.5],[1,0.5]];portConstraint=eastwest;top=0;left=0;right=0;bottom=0;" parent="142" vertex="1">
                    <mxGeometry y="120" width="430" height="180" as="geometry"/>
                </mxCell>
                <mxCell id="153" value="" style="shape=partialRectangle;connectable=0;fillColor=none;top=0;left=0;bottom=0;right=0;editable=1;overflow=hidden;" parent="152" vertex="1">
                    <mxGeometry width="30" height="180" as="geometry">
                        <mxRectangle width="30" height="180" as="alternateBounds"/>
                    </mxGeometry>
                </mxCell>
                <mxCell id="154" value="" style="shape=partialRectangle;connectable=0;fillColor=none;top=0;left=0;bottom=0;right=0;align=left;spacingLeft=6;overflow=hidden;" parent="152" vertex="1">
                    <mxGeometry x="30" width="400" height="180" as="geometry">
                        <mxRectangle width="400" height="180" as="alternateBounds"/>
                    </mxGeometry>
                </mxCell>
                <mxCell id="155" value="given_name　(VARCHAR)" style="shape=partialRectangle;connectable=0;fillColor=none;top=0;left=0;bottom=0;right=0;align=left;spacingLeft=6;overflow=hidden;" parent="1" vertex="1">
                    <mxGeometry x="420" y="370" width="260" height="30" as="geometry">
                        <mxRectangle width="130" height="30" as="alternateBounds"/>
                    </mxGeometry>
                </mxCell>
                <mxCell id="156" value="given_name_kana　(VARCHAR)" style="shape=partialRectangle;connectable=0;fillColor=none;top=0;left=0;bottom=0;right=0;align=left;spacingLeft=6;overflow=hidden;" parent="1" vertex="1">
                    <mxGeometry x="420" y="400" width="260" height="30" as="geometry">
                        <mxRectangle width="130" height="30" as="alternateBounds"/>
                    </mxGeometry>
                </mxCell>
                <mxCell id="157" value="age　(INT)" style="shape=partialRectangle;connectable=0;fillColor=none;top=0;left=0;bottom=0;right=0;align=left;spacingLeft=6;overflow=hidden;" parent="1" vertex="1">
                    <mxGeometry x="420" y="430" width="130" height="30" as="geometry">
                        <mxRectangle width="130" height="30" as="alternateBounds"/>
                    </mxGeometry>
                </mxCell>
                <mxCell id="158" value="gender　(INT)" style="shape=partialRectangle;connectable=0;fillColor=none;top=0;left=0;bottom=0;right=0;align=left;spacingLeft=6;overflow=hidden;" parent="1" vertex="1">
                    <mxGeometry x="420" y="460" width="130" height="30" as="geometry">
                        <mxRectangle width="130" height="30" as="alternateBounds"/>
                    </mxGeometry>
                </mxCell>
                <mxCell id="159" value="birthday　(DATE)" style="shape=partialRectangle;connectable=0;fillColor=none;top=0;left=0;bottom=0;right=0;align=left;spacingLeft=6;overflow=hidden;" parent="1" vertex="1">
                    <mxGeometry x="420" y="490" width="250" height="30" as="geometry">
                        <mxRectangle width="130" height="30" as="alternateBounds"/>
                    </mxGeometry>
                </mxCell>
                <mxCell id="160" value="email　(VARCHAR)　" style="shape=partialRectangle;connectable=0;fillColor=none;top=0;left=0;bottom=0;right=0;align=left;spacingLeft=6;overflow=hidden;" parent="1" vertex="1">
                    <mxGeometry x="420" y="520" width="240" height="30" as="geometry">
                        <mxRectangle width="130" height="30" as="alternateBounds"/>
                    </mxGeometry>
                </mxCell>
                <mxCell id="174" value="Address" style="shape=table;startSize=35;container=1;collapsible=1;childLayout=tableLayout;fixedRows=1;rowLines=0;fontStyle=1;align=center;resizeLast=1;" parent="1" vertex="1">
                    <mxGeometry x="-110" y="630" width="350" height="250" as="geometry"/>
                </mxCell>
                <mxCell id="175" value="" style="shape=tableRow;horizontal=0;startSize=0;swimlaneHead=0;swimlaneBody=0;fillColor=none;collapsible=0;dropTarget=0;points=[[0,0.5],[1,0.5]];portConstraint=eastwest;top=0;left=0;right=0;bottom=1;" parent="174" vertex="1">
                    <mxGeometry y="35" width="350" height="49" as="geometry"/>
                </mxCell>
                <mxCell id="176" value="PK&#10;&#10;FK" style="shape=partialRectangle;connectable=0;fillColor=none;top=0;left=0;bottom=0;right=0;fontStyle=1;overflow=hidden;" parent="175" vertex="1">
                    <mxGeometry width="30" height="49" as="geometry">
                        <mxRectangle width="30" height="49" as="alternateBounds"/>
                    </mxGeometry>
                </mxCell>
                <mxCell id="177" value="id　(INT)　NOT NULL&#10;&#10;user_id　(INT)　NOT NULL" style="shape=partialRectangle;connectable=0;fillColor=none;top=0;left=0;bottom=0;right=0;align=left;spacingLeft=6;fontStyle=5;overflow=hidden;" parent="175" vertex="1">
                    <mxGeometry x="30" width="320" height="49" as="geometry">
                        <mxRectangle width="320" height="49" as="alternateBounds"/>
                    </mxGeometry>
                </mxCell>
                <mxCell id="178" value="" style="shape=tableRow;horizontal=0;startSize=0;swimlaneHead=0;swimlaneBody=0;fillColor=none;collapsible=0;dropTarget=0;points=[[0,0.5],[1,0.5]];portConstraint=eastwest;top=0;left=0;right=0;bottom=0;" parent="174" vertex="1">
                    <mxGeometry y="84" width="350" height="30" as="geometry"/>
                </mxCell>
                <mxCell id="179" value="" style="shape=partialRectangle;connectable=0;fillColor=none;top=0;left=0;bottom=0;right=0;editable=1;overflow=hidden;" parent="178" vertex="1">
                    <mxGeometry width="30" height="30" as="geometry">
                        <mxRectangle width="30" height="30" as="alternateBounds"/>
                    </mxGeometry>
                </mxCell>
                <mxCell id="180" value="" style="shape=partialRectangle;connectable=0;fillColor=none;top=0;left=0;bottom=0;right=0;align=left;spacingLeft=6;overflow=hidden;" parent="178" vertex="1">
                    <mxGeometry x="30" width="320" height="30" as="geometry">
                        <mxRectangle width="320" height="30" as="alternateBounds"/>
                    </mxGeometry>
                </mxCell>
                <mxCell id="181" value="" style="shape=tableRow;horizontal=0;startSize=0;swimlaneHead=0;swimlaneBody=0;fillColor=none;collapsible=0;dropTarget=0;points=[[0,0.5],[1,0.5]];portConstraint=eastwest;top=0;left=0;right=0;bottom=0;" parent="174" vertex="1">
                    <mxGeometry y="114" width="350" height="30" as="geometry"/>
                </mxCell>
                <mxCell id="182" value="" style="shape=partialRectangle;connectable=0;fillColor=none;top=0;left=0;bottom=0;right=0;editable=1;overflow=hidden;" parent="181" vertex="1">
                    <mxGeometry width="30" height="30" as="geometry">
                        <mxRectangle width="30" height="30" as="alternateBounds"/>
                    </mxGeometry>
                </mxCell>
                <mxCell id="183" value="" style="shape=partialRectangle;connectable=0;fillColor=none;top=0;left=0;bottom=0;right=0;align=left;spacingLeft=6;overflow=hidden;" parent="181" vertex="1">
                    <mxGeometry x="30" width="320" height="30" as="geometry">
                        <mxRectangle width="320" height="30" as="alternateBounds"/>
                    </mxGeometry>
                </mxCell>
                <mxCell id="184" value="" style="shape=tableRow;horizontal=0;startSize=0;swimlaneHead=0;swimlaneBody=0;fillColor=none;collapsible=0;dropTarget=0;points=[[0,0.5],[1,0.5]];portConstraint=eastwest;top=0;left=0;right=0;bottom=0;" parent="174" vertex="1">
                    <mxGeometry y="144" width="350" height="106" as="geometry"/>
                </mxCell>
                <mxCell id="185" value="" style="shape=partialRectangle;connectable=0;fillColor=none;top=0;left=0;bottom=0;right=0;editable=1;overflow=hidden;" parent="184" vertex="1">
                    <mxGeometry width="30" height="106" as="geometry">
                        <mxRectangle width="30" height="106" as="alternateBounds"/>
                    </mxGeometry>
                </mxCell>
                <mxCell id="186" value="" style="shape=partialRectangle;connectable=0;fillColor=none;top=0;left=0;bottom=0;right=0;align=left;spacingLeft=6;overflow=hidden;" parent="184" vertex="1">
                    <mxGeometry x="30" width="320" height="106" as="geometry">
                        <mxRectangle width="320" height="106" as="alternateBounds"/>
                    </mxGeometry>
                </mxCell>
                <mxCell id="187" value="prefecture　(VARCHAR)　NOT NULL" style="shape=partialRectangle;connectable=0;fillColor=none;top=0;left=0;bottom=0;right=0;align=left;spacingLeft=6;overflow=hidden;" parent="1" vertex="1">
                    <mxGeometry x="-80.5" y="715" width="230.5" height="30" as="geometry">
                        <mxRectangle width="130" height="30" as="alternateBounds"/>
                    </mxGeometry>
                </mxCell>
                <mxCell id="188" value="city　(VARCHAR)　NOT NULL" style="shape=partialRectangle;connectable=0;fillColor=none;top=0;left=0;bottom=0;right=0;align=left;spacingLeft=6;overflow=hidden;" parent="1" vertex="1">
                    <mxGeometry x="-80.5" y="745" width="220.5" height="35.5" as="geometry">
                        <mxRectangle width="130" height="30" as="alternateBounds"/>
                    </mxGeometry>
                </mxCell>
                <mxCell id="189" value="address1　(VARCHAR)　NOT NULL" style="shape=partialRectangle;connectable=0;fillColor=none;top=0;left=0;bottom=0;right=0;align=left;spacingLeft=6;overflow=hidden;" parent="1" vertex="1">
                    <mxGeometry x="-80.5" y="780.5" width="240.5" height="25.5" as="geometry">
                        <mxRectangle width="130" height="30" as="alternateBounds"/>
                    </mxGeometry>
                </mxCell>
                <mxCell id="190" value="address2　(VARCHAR)" style="shape=partialRectangle;connectable=0;fillColor=none;top=0;left=0;bottom=0;right=0;align=left;spacingLeft=6;overflow=hidden;" parent="1" vertex="1">
                    <mxGeometry x="-80.5" y="806" width="150" height="30" as="geometry">
                        <mxRectangle width="130" height="30" as="alternateBounds"/>
                    </mxGeometry>
                </mxCell>
                <mxCell id="604" value="StudyHour" style="shape=table;startSize=30;container=1;collapsible=1;childLayout=tableLayout;fixedRows=1;rowLines=0;fontStyle=1;align=center;resizeLast=1;" parent="1" vertex="1">
                    <mxGeometry x="-588" y="250" width="350" height="200" as="geometry"/>
                </mxCell>
                <mxCell id="605" value="" style="shape=tableRow;horizontal=0;startSize=0;swimlaneHead=0;swimlaneBody=0;fillColor=none;collapsible=0;dropTarget=0;points=[[0,0.5],[1,0.5]];portConstraint=eastwest;top=0;left=0;right=0;bottom=1;" parent="604" vertex="1">
                    <mxGeometry y="30" width="350" height="50" as="geometry"/>
                </mxCell>
                <mxCell id="606" value="PK&#10;&#10;FK&#10;&#10;" style="shape=partialRectangle;connectable=0;fillColor=none;top=0;left=0;bottom=0;right=0;fontStyle=1;overflow=hidden;" parent="605" vertex="1">
                    <mxGeometry width="30" height="50" as="geometry">
                        <mxRectangle width="30" height="50" as="alternateBounds"/>
                    </mxGeometry>
                </mxCell>
                <mxCell id="607" value="id　(INT)　NOT NULL&#10; &#10;todo_id　(INT)　NOT NULL&#10;" style="shape=partialRectangle;connectable=0;fillColor=none;top=0;left=0;bottom=0;right=0;align=left;spacingLeft=6;fontStyle=5;overflow=hidden;" parent="605" vertex="1">
                    <mxGeometry x="30" width="320" height="50" as="geometry">
                        <mxRectangle width="320" height="50" as="alternateBounds"/>
                    </mxGeometry>
                </mxCell>
                <mxCell id="608" value="" style="shape=tableRow;horizontal=0;startSize=0;swimlaneHead=0;swimlaneBody=0;fillColor=none;collapsible=0;dropTarget=0;points=[[0,0.5],[1,0.5]];portConstraint=eastwest;top=0;left=0;right=0;bottom=0;" parent="604" vertex="1">
                    <mxGeometry y="80" width="350" height="30" as="geometry"/>
                </mxCell>
                <mxCell id="609" value="" style="shape=partialRectangle;connectable=0;fillColor=none;top=0;left=0;bottom=0;right=0;editable=1;overflow=hidden;" parent="608" vertex="1">
                    <mxGeometry width="30" height="30" as="geometry">
                        <mxRectangle width="30" height="30" as="alternateBounds"/>
                    </mxGeometry>
                </mxCell>
                <mxCell id="610" value="subject　(VARCHAR)　NOT NULL" style="shape=partialRectangle;connectable=0;fillColor=none;top=0;left=0;bottom=0;right=0;align=left;spacingLeft=6;overflow=hidden;" parent="608" vertex="1">
                    <mxGeometry x="30" width="320" height="30" as="geometry">
                        <mxRectangle width="320" height="30" as="alternateBounds"/>
                    </mxGeometry>
                </mxCell>
                <mxCell id="611" value="" style="shape=tableRow;horizontal=0;startSize=0;swimlaneHead=0;swimlaneBody=0;fillColor=none;collapsible=0;dropTarget=0;points=[[0,0.5],[1,0.5]];portConstraint=eastwest;top=0;left=0;right=0;bottom=0;" parent="604" vertex="1">
                    <mxGeometry y="110" width="350" height="90" as="geometry"/>
                </mxCell>
                <mxCell id="612" value="" style="shape=partialRectangle;connectable=0;fillColor=none;top=0;left=0;bottom=0;right=0;editable=1;overflow=hidden;" parent="611" vertex="1">
                    <mxGeometry width="30" height="90" as="geometry">
                        <mxRectangle width="30" height="90" as="alternateBounds"/>
                    </mxGeometry>
                </mxCell>
                <mxCell id="613" value="" style="shape=partialRectangle;connectable=0;fillColor=none;top=0;left=0;bottom=0;right=0;align=left;spacingLeft=6;overflow=hidden;" parent="611" vertex="1">
                    <mxGeometry x="30" width="320" height="90" as="geometry">
                        <mxRectangle width="320" height="90" as="alternateBounds"/>
                    </mxGeometry>
                </mxCell>
                <mxCell id="617" value="actual_learning_time　（INT）" style="shape=partialRectangle;connectable=0;fillColor=none;top=0;left=0;bottom=0;right=0;align=left;spacingLeft=6;overflow=hidden;" parent="1" vertex="1">
                    <mxGeometry x="-558" y="385" width="170" height="40" as="geometry">
                        <mxRectangle width="150" height="30" as="alternateBounds"/>
                    </mxGeometry>
                </mxCell>
                <mxCell id="618" value="study_type　（INT）　NOT NULL" style="shape=partialRectangle;connectable=0;fillColor=none;top=0;left=0;bottom=0;right=0;align=left;spacingLeft=6;overflow=hidden;" parent="1" vertex="1">
                    <mxGeometry x="-558" y="415" width="228" height="30" as="geometry">
                        <mxRectangle width="150" height="30" as="alternateBounds"/>
                    </mxGeometry>
                </mxCell>
                <mxCell id="619" value="title　(VARCHAR)　NOT NULL" style="shape=partialRectangle;connectable=0;fillColor=none;top=0;left=0;bottom=0;right=0;align=left;spacingLeft=6;overflow=hidden;" parent="1" vertex="1">
                    <mxGeometry x="-556" y="360" width="226" height="30" as="geometry">
                        <mxRectangle width="148" height="30" as="alternateBounds"/>
                    </mxGeometry>
                </mxCell>
                <mxCell id="620" value="Aspiration" style="shape=table;startSize=30;container=1;collapsible=1;childLayout=tableLayout;fixedRows=1;rowLines=0;fontStyle=1;align=center;resizeLast=1;" parent="1" vertex="1">
                    <mxGeometry x="940" y="255" width="290" height="110" as="geometry"/>
                </mxCell>
                <mxCell id="621" value="" style="shape=tableRow;horizontal=0;startSize=0;swimlaneHead=0;swimlaneBody=0;fillColor=none;collapsible=0;dropTarget=0;points=[[0,0.5],[1,0.5]];portConstraint=eastwest;top=0;left=0;right=0;bottom=1;" parent="620" vertex="1">
                    <mxGeometry y="30" width="290" height="80" as="geometry"/>
                </mxCell>
                <mxCell id="622" value="PK&#10;FK&#10;FK&#10;" style="shape=partialRectangle;connectable=0;fillColor=none;top=0;left=0;bottom=0;right=0;fontStyle=1;overflow=hidden;" parent="621" vertex="1">
                    <mxGeometry width="30" height="80" as="geometry">
                        <mxRectangle width="30" height="80" as="alternateBounds"/>
                    </mxGeometry>
                </mxCell>
                <mxCell id="623" value="id　(INT)　NOT NULL&#10;user_id　(INT)　NOT NULL&#10;desired_school_id　(INT)　NOT NULL" style="shape=partialRectangle;connectable=0;fillColor=none;top=0;left=0;bottom=0;right=0;align=left;spacingLeft=6;fontStyle=5;overflow=hidden;" parent="621" vertex="1">
                    <mxGeometry x="30" width="260" height="80" as="geometry">
                        <mxRectangle width="260" height="80" as="alternateBounds"/>
                    </mxGeometry>
                </mxCell>
                <mxCell id="666" value="DesiredSchool" style="shape=table;startSize=30;container=1;collapsible=1;childLayout=tableLayout;fixedRows=1;rowLines=0;fontStyle=1;align=center;resizeLast=1;" parent="1" vertex="1">
                    <mxGeometry x="1324" y="250" width="330" height="465" as="geometry"/>
                </mxCell>
                <mxCell id="667" value="" style="shape=tableRow;horizontal=0;startSize=0;swimlaneHead=0;swimlaneBody=0;fillColor=none;collapsible=0;dropTarget=0;points=[[0,0.5],[1,0.5]];portConstraint=eastwest;top=0;left=0;right=0;bottom=1;" parent="666" vertex="1">
                    <mxGeometry y="30" width="330" height="30" as="geometry"/>
                </mxCell>
                <mxCell id="668" value="PK" style="shape=partialRectangle;connectable=0;fillColor=none;top=0;left=0;bottom=0;right=0;fontStyle=1;overflow=hidden;" parent="667" vertex="1">
                    <mxGeometry width="30" height="30" as="geometry">
                        <mxRectangle width="30" height="30" as="alternateBounds"/>
                    </mxGeometry>
                </mxCell>
                <mxCell id="669" value="id　(INT)　NOT NULL" style="shape=partialRectangle;connectable=0;fillColor=none;top=0;left=0;bottom=0;right=0;align=left;spacingLeft=6;fontStyle=5;overflow=hidden;" parent="667" vertex="1">
                    <mxGeometry x="30" width="300" height="30" as="geometry">
                        <mxRectangle width="300" height="30" as="alternateBounds"/>
                    </mxGeometry>
                </mxCell>
                <mxCell id="670" value="" style="shape=tableRow;horizontal=0;startSize=0;swimlaneHead=0;swimlaneBody=0;fillColor=none;collapsible=0;dropTarget=0;points=[[0,0.5],[1,0.5]];portConstraint=eastwest;top=0;left=0;right=0;bottom=0;" parent="666" vertex="1">
                    <mxGeometry y="60" width="330" height="30" as="geometry"/>
                </mxCell>
                <mxCell id="671" value="" style="shape=partialRectangle;connectable=0;fillColor=none;top=0;left=0;bottom=0;right=0;editable=1;overflow=hidden;" parent="670" vertex="1">
                    <mxGeometry width="30" height="30" as="geometry">
                        <mxRectangle width="30" height="30" as="alternateBounds"/>
                    </mxGeometry>
                </mxCell>
                <mxCell id="672" value="university　(VARCHAR)　NOT NULL" style="shape=partialRectangle;connectable=0;fillColor=none;top=0;left=0;bottom=0;right=0;align=left;spacingLeft=6;overflow=hidden;" parent="670" vertex="1">
                    <mxGeometry x="30" width="300" height="30" as="geometry">
                        <mxRectangle width="300" height="30" as="alternateBounds"/>
                    </mxGeometry>
                </mxCell>
                <mxCell id="673" value="" style="shape=tableRow;horizontal=0;startSize=0;swimlaneHead=0;swimlaneBody=0;fillColor=none;collapsible=0;dropTarget=0;points=[[0,0.5],[1,0.5]];portConstraint=eastwest;top=0;left=0;right=0;bottom=0;" parent="666" vertex="1">
                    <mxGeometry y="90" width="330" height="35" as="geometry"/>
                </mxCell>
                <mxCell id="674" value="" style="shape=partialRectangle;connectable=0;fillColor=none;top=0;left=0;bottom=0;right=0;editable=1;overflow=hidden;" parent="673" vertex="1">
                    <mxGeometry width="30" height="35" as="geometry">
                        <mxRectangle width="30" height="35" as="alternateBounds"/>
                    </mxGeometry>
                </mxCell>
                <mxCell id="675" value="faculty　(VARCHAR)　NOT NULL" style="shape=partialRectangle;connectable=0;fillColor=none;top=0;left=0;bottom=0;right=0;align=left;spacingLeft=6;overflow=hidden;" parent="673" vertex="1">
                    <mxGeometry x="30" width="300" height="35" as="geometry">
                        <mxRectangle width="300" height="35" as="alternateBounds"/>
                    </mxGeometry>
                </mxCell>
                <mxCell id="676" value="" style="shape=tableRow;horizontal=0;startSize=0;swimlaneHead=0;swimlaneBody=0;fillColor=none;collapsible=0;dropTarget=0;points=[[0,0.5],[1,0.5]];portConstraint=eastwest;top=0;left=0;right=0;bottom=0;" parent="666" vertex="1">
                    <mxGeometry y="125" width="330" height="340" as="geometry"/>
                </mxCell>
                <mxCell id="677" value="" style="shape=partialRectangle;connectable=0;fillColor=none;top=0;left=0;bottom=0;right=0;editable=1;overflow=hidden;" parent="676" vertex="1">
                    <mxGeometry width="30" height="340" as="geometry">
                        <mxRectangle width="30" height="340" as="alternateBounds"/>
                    </mxGeometry>
                </mxCell>
                <mxCell id="678" value="" style="shape=partialRectangle;connectable=0;fillColor=none;top=0;left=0;bottom=0;right=0;align=left;spacingLeft=6;overflow=hidden;" parent="676" vertex="1">
                    <mxGeometry x="30" width="300" height="340" as="geometry">
                        <mxRectangle width="300" height="340" as="alternateBounds"/>
                    </mxGeometry>
                </mxCell>
                <mxCell id="679" value="department　(VARCHAR)　" style="shape=partialRectangle;connectable=0;fillColor=none;top=0;left=0;bottom=0;right=0;align=left;spacingLeft=6;overflow=hidden;" parent="1" vertex="1">
                    <mxGeometry x="1350" y="370" width="150" height="30" as="geometry">
                        <mxRectangle width="150" height="30" as="alternateBounds"/>
                    </mxGeometry>
                </mxCell>
                <mxCell id="680" value="deviation_value　(Float)" style="shape=partialRectangle;connectable=0;fillColor=none;top=0;left=0;bottom=0;right=0;align=left;spacingLeft=6;overflow=hidden;" parent="1" vertex="1">
                    <mxGeometry x="1350" y="400" width="150" height="30" as="geometry">
                        <mxRectangle width="150" height="30" as="alternateBounds"/>
                    </mxGeometry>
                </mxCell>
                <mxCell id="681" value="location　(VARCHAR)　NOT NULL" style="shape=partialRectangle;connectable=0;fillColor=none;top=0;left=0;bottom=0;right=0;align=left;spacingLeft=6;overflow=hidden;" parent="1" vertex="1">
                    <mxGeometry x="1350" y="430" width="220" height="30" as="geometry">
                        <mxRectangle width="150" height="30" as="alternateBounds"/>
                    </mxGeometry>
                </mxCell>
                <mxCell id="682" value="region　(VARCHAR)" style="shape=partialRectangle;connectable=0;fillColor=none;top=0;left=0;bottom=0;right=0;align=left;spacingLeft=6;overflow=hidden;" parent="1" vertex="1">
                    <mxGeometry x="1350" y="460" width="220" height="30" as="geometry">
                        <mxRectangle width="150" height="30" as="alternateBounds"/>
                    </mxGeometry>
                </mxCell>
                <mxCell id="683" value="undergraduate_system　(VARCHAR)" style="shape=partialRectangle;connectable=0;fillColor=none;top=0;left=0;bottom=0;right=0;align=left;spacingLeft=6;overflow=hidden;" parent="1" vertex="1">
                    <mxGeometry x="1350" y="490" width="280" height="30" as="geometry">
                        <mxRectangle width="150" height="30" as="alternateBounds"/>
                    </mxGeometry>
                </mxCell>
                <mxCell id="684" value="code　(INT)　NOT NULL" style="shape=partialRectangle;connectable=0;fillColor=none;top=0;left=0;bottom=0;right=0;align=left;spacingLeft=6;overflow=hidden;" parent="1" vertex="1">
                    <mxGeometry x="1350" y="520" width="150" height="30" as="geometry">
                        <mxRectangle width="150" height="30" as="alternateBounds"/>
                    </mxGeometry>
                </mxCell>
                <mxCell id="685" value="faculty_of_code　(INT)　NOT NULL" style="shape=partialRectangle;connectable=0;fillColor=none;top=0;left=0;bottom=0;right=0;align=left;spacingLeft=6;overflow=hidden;" parent="1" vertex="1">
                    <mxGeometry x="1350" y="555" width="220" height="30" as="geometry">
                        <mxRectangle width="150" height="30" as="alternateBounds"/>
                    </mxGeometry>
                </mxCell>
                <mxCell id="686" value="explanation　(Text)" style="shape=partialRectangle;connectable=0;fillColor=none;top=0;left=0;bottom=0;right=0;align=left;spacingLeft=6;overflow=hidden;" parent="1" vertex="1">
                    <mxGeometry x="1350" y="585" width="150" height="30" as="geometry">
                        <mxRectangle width="150" height="30" as="alternateBounds"/>
                    </mxGeometry>
                </mxCell>
                <mxCell id="687" value="capacity　(VARCHAR)" style="shape=partialRectangle;connectable=0;fillColor=none;top=0;left=0;bottom=0;right=0;align=left;spacingLeft=6;overflow=hidden;" parent="1" vertex="1">
                    <mxGeometry x="1350" y="615" width="150" height="30" as="geometry">
                        <mxRectangle width="150" height="30" as="alternateBounds"/>
                    </mxGeometry>
                </mxCell>
                <mxCell id="688" value="division　(VARCHAR)　NOT NULL" style="shape=partialRectangle;connectable=0;fillColor=none;top=0;left=0;bottom=0;right=0;align=left;spacingLeft=6;overflow=hidden;" parent="1" vertex="1">
                    <mxGeometry x="1350" y="645" width="230" height="30" as="geometry">
                        <mxRectangle width="150" height="30" as="alternateBounds"/>
                    </mxGeometry>
                </mxCell>
                <mxCell id="689" value="department_system　(VARCHAR)　NOT NULL" style="shape=partialRectangle;connectable=0;fillColor=none;top=0;left=0;bottom=0;right=0;align=left;spacingLeft=6;overflow=hidden;" parent="1" vertex="1">
                    <mxGeometry x="1350" y="675" width="270" height="30" as="geometry">
                        <mxRectangle width="150" height="30" as="alternateBounds"/>
                    </mxGeometry>
                </mxCell>
                <mxCell id="703" value="RelationShip" style="shape=table;startSize=30;container=1;collapsible=1;childLayout=tableLayout;fixedRows=1;rowLines=0;fontStyle=1;align=center;resizeLast=1;" parent="1" vertex="1">
                    <mxGeometry x="940" y="400" width="290" height="110" as="geometry"/>
                </mxCell>
                <mxCell id="704" value="" style="shape=tableRow;horizontal=0;startSize=0;swimlaneHead=0;swimlaneBody=0;fillColor=none;collapsible=0;dropTarget=0;points=[[0,0.5],[1,0.5]];portConstraint=eastwest;top=0;left=0;right=0;bottom=1;" parent="703" vertex="1">
                    <mxGeometry y="30" width="290" height="80" as="geometry"/>
                </mxCell>
                <mxCell id="705" value="PK&#10;FK&#10;FK&#10;" style="shape=partialRectangle;connectable=0;fillColor=none;top=0;left=0;bottom=0;right=0;fontStyle=1;overflow=hidden;" parent="704" vertex="1">
                    <mxGeometry width="30" height="80" as="geometry">
                        <mxRectangle width="30" height="80" as="alternateBounds"/>
                    </mxGeometry>
                </mxCell>
                <mxCell id="706" value="id　(INT)　NOT NULL&#10;follower_id　(INT)&#10;followed_id　(INT)" style="shape=partialRectangle;connectable=0;fillColor=none;top=0;left=0;bottom=0;right=0;align=left;spacingLeft=6;fontStyle=5;overflow=hidden;" parent="704" vertex="1">
                    <mxGeometry x="30" width="260" height="80" as="geometry">
                        <mxRectangle width="260" height="80" as="alternateBounds"/>
                    </mxGeometry>
                </mxCell>
                <mxCell id="707" value="RoomUser" style="shape=table;startSize=30;container=1;collapsible=1;childLayout=tableLayout;fixedRows=1;rowLines=0;fontStyle=1;align=center;resizeLast=1;" parent="1" vertex="1">
                    <mxGeometry x="940" y="785" width="290" height="110" as="geometry"/>
                </mxCell>
                <mxCell id="708" value="" style="shape=tableRow;horizontal=0;startSize=0;swimlaneHead=0;swimlaneBody=0;fillColor=none;collapsible=0;dropTarget=0;points=[[0,0.5],[1,0.5]];portConstraint=eastwest;top=0;left=0;right=0;bottom=1;" parent="707" vertex="1">
                    <mxGeometry y="30" width="290" height="80" as="geometry"/>
                </mxCell>
                <mxCell id="709" value="PK&#10;FK&#10;FK&#10;" style="shape=partialRectangle;connectable=0;fillColor=none;top=0;left=0;bottom=0;right=0;fontStyle=1;overflow=hidden;" parent="708" vertex="1">
                    <mxGeometry width="30" height="80" as="geometry">
                        <mxRectangle width="30" height="80" as="alternateBounds"/>
                    </mxGeometry>
                </mxCell>
                <mxCell id="710" value="id　(INT)　NOT NULL&#10;user_id　(INT)　NOT NULL&#10;room_id　(INT)　NOT NULL" style="shape=partialRectangle;connectable=0;fillColor=none;top=0;left=0;bottom=0;right=0;align=left;spacingLeft=6;fontStyle=5;overflow=hidden;" parent="708" vertex="1">
                    <mxGeometry x="30" width="260" height="80" as="geometry">
                        <mxRectangle width="260" height="80" as="alternateBounds"/>
                    </mxGeometry>
                </mxCell>
                <mxCell id="711" value="Room" style="shape=table;startSize=30;container=1;collapsible=1;childLayout=tableLayout;fixedRows=1;rowLines=0;fontStyle=1;align=center;resizeLast=1;" parent="1" vertex="1">
                    <mxGeometry x="1324" y="815" width="236" height="80" as="geometry"/>
                </mxCell>
                <mxCell id="712" value="" style="shape=tableRow;horizontal=0;startSize=0;swimlaneHead=0;swimlaneBody=0;fillColor=none;collapsible=0;dropTarget=0;points=[[0,0.5],[1,0.5]];portConstraint=eastwest;top=0;left=0;right=0;bottom=1;" parent="711" vertex="1">
                    <mxGeometry y="30" width="236" height="50" as="geometry"/>
                </mxCell>
                <mxCell id="713" value="PK" style="shape=partialRectangle;connectable=0;fillColor=none;top=0;left=0;bottom=0;right=0;fontStyle=1;overflow=hidden;" parent="712" vertex="1">
                    <mxGeometry width="30" height="50" as="geometry">
                        <mxRectangle width="30" height="50" as="alternateBounds"/>
                    </mxGeometry>
                </mxCell>
                <mxCell id="714" value="id　(INT)　NOT NULL" style="shape=partialRectangle;connectable=0;fillColor=none;top=0;left=0;bottom=0;right=0;align=left;spacingLeft=6;fontStyle=5;overflow=hidden;" parent="712" vertex="1">
                    <mxGeometry x="30" width="206" height="50" as="geometry">
                        <mxRectangle width="206" height="50" as="alternateBounds"/>
                    </mxGeometry>
                </mxCell>
                <mxCell id="716" value="Like" style="shape=table;startSize=30;container=1;collapsible=1;childLayout=tableLayout;fixedRows=1;rowLines=0;fontStyle=1;align=center;resizeLast=1;" parent="1" vertex="1">
                    <mxGeometry x="940" y="550" width="290" height="110" as="geometry"/>
                </mxCell>
                <mxCell id="717" value="" style="shape=tableRow;horizontal=0;startSize=0;swimlaneHead=0;swimlaneBody=0;fillColor=none;collapsible=0;dropTarget=0;points=[[0,0.5],[1,0.5]];portConstraint=eastwest;top=0;left=0;right=0;bottom=1;" parent="716" vertex="1">
                    <mxGeometry y="30" width="290" height="80" as="geometry"/>
                </mxCell>
                <mxCell id="718" value="PK&#10;FK&#10;FK&#10;" style="shape=partialRectangle;connectable=0;fillColor=none;top=0;left=0;bottom=0;right=0;fontStyle=1;overflow=hidden;" parent="717" vertex="1">
                    <mxGeometry width="30" height="80" as="geometry">
                        <mxRectangle width="30" height="80" as="alternateBounds"/>
                    </mxGeometry>
                </mxCell>
                <mxCell id="719" value="id　(INT)　NOT NULL&#10;from_user_id　(INT)　NOT NULL&#10;to_user_id　(INT)　NOT NULL" style="shape=partialRectangle;connectable=0;fillColor=none;top=0;left=0;bottom=0;right=0;align=left;spacingLeft=6;fontStyle=5;overflow=hidden;" parent="717" vertex="1">
                    <mxGeometry x="30" width="260" height="80" as="geometry">
                        <mxRectangle width="260" height="80" as="alternateBounds"/>
                    </mxGeometry>
                </mxCell>
                <mxCell id="720" value="Message" style="shape=table;startSize=30;container=1;collapsible=1;childLayout=tableLayout;fixedRows=1;rowLines=0;fontStyle=1;align=center;resizeLast=1;" parent="1" vertex="1">
                    <mxGeometry x="940" y="960" width="300" height="140" as="geometry"/>
                </mxCell>
                <mxCell id="721" value="" style="shape=tableRow;horizontal=0;startSize=0;swimlaneHead=0;swimlaneBody=0;fillColor=none;collapsible=0;dropTarget=0;points=[[0,0.5],[1,0.5]];portConstraint=eastwest;top=0;left=0;right=0;bottom=1;" parent="720" vertex="1">
                    <mxGeometry y="30" width="300" height="80" as="geometry"/>
                </mxCell>
                <mxCell id="722" value="PK&#10;&#10;FK&#10;&#10;FK" style="shape=partialRectangle;connectable=0;fillColor=none;top=0;left=0;bottom=0;right=0;fontStyle=1;overflow=hidden;" parent="721" vertex="1">
                    <mxGeometry width="30" height="80" as="geometry">
                        <mxRectangle width="30" height="80" as="alternateBounds"/>
                    </mxGeometry>
                </mxCell>
                <mxCell id="723" value="id　(INT)　NOT NULL&#10;&#10;user_id　(INT)　NOT NULL&#10;&#10;room_id　(INT)" style="shape=partialRectangle;connectable=0;fillColor=none;top=0;left=0;bottom=0;right=0;align=left;spacingLeft=6;fontStyle=5;overflow=hidden;" parent="721" vertex="1">
                    <mxGeometry x="30" width="270" height="80" as="geometry">
                        <mxRectangle width="270" height="80" as="alternateBounds"/>
                    </mxGeometry>
                </mxCell>
                <mxCell id="724" value="" style="shape=tableRow;horizontal=0;startSize=0;swimlaneHead=0;swimlaneBody=0;fillColor=none;collapsible=0;dropTarget=0;points=[[0,0.5],[1,0.5]];portConstraint=eastwest;top=0;left=0;right=0;bottom=0;" parent="720" vertex="1">
                    <mxGeometry y="110" width="300" height="30" as="geometry"/>
                </mxCell>
                <mxCell id="725" value="" style="shape=partialRectangle;connectable=0;fillColor=none;top=0;left=0;bottom=0;right=0;editable=1;overflow=hidden;" parent="724" vertex="1">
                    <mxGeometry width="30" height="30" as="geometry">
                        <mxRectangle width="30" height="30" as="alternateBounds"/>
                    </mxGeometry>
                </mxCell>
                <mxCell id="726" value="content　(VARCHAR)" style="shape=partialRectangle;connectable=0;fillColor=none;top=0;left=0;bottom=0;right=0;align=left;spacingLeft=6;overflow=hidden;" parent="724" vertex="1">
                    <mxGeometry x="30" width="270" height="30" as="geometry">
                        <mxRectangle width="270" height="30" as="alternateBounds"/>
                    </mxGeometry>
                </mxCell>
                <mxCell id="730" value="" style="edgeStyle=entityRelationEdgeStyle;fontSize=12;html=1;endArrow=ERoneToMany;" parent="1" edge="1">
                    <mxGeometry width="100" height="100" relative="1" as="geometry">
                        <mxPoint x="363" y="330" as="sourcePoint"/>
                        <mxPoint x="300" y="330" as="targetPoint"/>
                    </mxGeometry>
                </mxCell>
                <mxCell id="731" value="" style="edgeStyle=entityRelationEdgeStyle;fontSize=12;html=1;endArrow=ERmandOne;startArrow=ERmandOne;entryX=0;entryY=0.5;entryDx=0;entryDy=0;" parent="1" target="152" edge="1">
                    <mxGeometry width="100" height="100" relative="1" as="geometry">
                        <mxPoint x="240" y="809" as="sourcePoint"/>
                        <mxPoint x="382.5" y="460" as="targetPoint"/>
                    </mxGeometry>
                </mxCell>
                <mxCell id="732" value="" style="shape=tableRow;horizontal=0;startSize=0;swimlaneHead=0;swimlaneBody=0;fillColor=none;collapsible=0;dropTarget=0;points=[[0,0.5],[1,0.5]];portConstraint=eastwest;top=0;left=0;right=0;bottom=0;" parent="1" vertex="1">
                    <mxGeometry x="933" y="1090" width="178" height="20" as="geometry"/>
                </mxCell>
                <mxCell id="733" value="" style="shape=partialRectangle;connectable=0;fillColor=none;top=0;left=0;bottom=0;right=0;editable=1;overflow=hidden;" parent="732" vertex="1">
                    <mxGeometry width="30" height="20" as="geometry">
                        <mxRectangle width="30" height="20" as="alternateBounds"/>
                    </mxGeometry>
                </mxCell>
                <mxCell id="734" value="" style="shape=partialRectangle;connectable=0;fillColor=none;top=0;left=0;bottom=0;right=0;align=left;spacingLeft=6;overflow=hidden;" parent="732" vertex="1">
                    <mxGeometry x="30" width="148" height="20" as="geometry">
                        <mxRectangle width="148" height="20" as="alternateBounds"/>
                    </mxGeometry>
                </mxCell>
                <mxCell id="735" value="" style="edgeStyle=entityRelationEdgeStyle;fontSize=12;html=1;endArrow=ERmandOne;startArrow=ERmandOne;exitX=1;exitY=0.5;exitDx=0;exitDy=0;" parent="1" source="CwhzS3PvI31wmW9_6d_s-767" edge="1">
                    <mxGeometry width="100" height="100" relative="1" as="geometry">
                        <mxPoint x="260" y="1040" as="sourcePoint"/>
                        <mxPoint x="390" y="531" as="targetPoint"/>
                    </mxGeometry>
                </mxCell>
                <mxCell id="737" value="" style="edgeStyle=entityRelationEdgeStyle;fontSize=12;html=1;endArrow=ERmany;startArrow=ERmany;exitX=1.014;exitY=0.303;exitDx=0;exitDy=0;exitPerimeter=0;" parent="1" source="621" edge="1">
                    <mxGeometry width="100" height="100" relative="1" as="geometry">
                        <mxPoint x="1241" y="310" as="sourcePoint"/>
                        <mxPoint x="1321" y="309.5" as="targetPoint"/>
                    </mxGeometry>
                </mxCell>
                <mxCell id="738" value="" style="edgeStyle=entityRelationEdgeStyle;fontSize=12;html=1;endArrow=ERmany;startArrow=ERmany;" parent="1" edge="1">
                    <mxGeometry width="100" height="100" relative="1" as="geometry">
                        <mxPoint x="820" y="310" as="sourcePoint"/>
                        <mxPoint x="940" y="310" as="targetPoint"/>
                    </mxGeometry>
                </mxCell>
                <mxCell id="739" value="" style="edgeStyle=entityRelationEdgeStyle;fontSize=12;html=1;endArrow=ERoneToMany;" parent="1" edge="1">
                    <mxGeometry width="100" height="100" relative="1" as="geometry">
                        <mxPoint x="820" y="430" as="sourcePoint"/>
                        <mxPoint x="940" y="430" as="targetPoint"/>
                    </mxGeometry>
                </mxCell>
                <mxCell id="740" value="" style="edgeStyle=entityRelationEdgeStyle;fontSize=12;html=1;endArrow=ERoneToMany;entryX=0;entryY=0.25;entryDx=0;entryDy=0;exitX=1.011;exitY=0.466;exitDx=0;exitDy=0;exitPerimeter=0;" parent="1" source="152" target="716" edge="1">
                    <mxGeometry width="100" height="100" relative="1" as="geometry">
                        <mxPoint x="830" y="470" as="sourcePoint"/>
                        <mxPoint x="670" y="624.5999999999999" as="targetPoint"/>
                    </mxGeometry>
                </mxCell>
                <mxCell id="741" value="" style="edgeStyle=entityRelationEdgeStyle;fontSize=12;html=1;endArrow=ERmany;startArrow=ERmany;exitX=1.011;exitY=0.661;exitDx=0;exitDy=0;exitPerimeter=0;entryX=0;entryY=0.25;entryDx=0;entryDy=0;" parent="1" source="152" target="707" edge="1">
                    <mxGeometry width="100" height="100" relative="1" as="geometry">
                        <mxPoint x="830" y="585" as="sourcePoint"/>
                        <mxPoint x="930" y="810" as="targetPoint"/>
                    </mxGeometry>
                </mxCell>
                <mxCell id="742" value="" style="edgeStyle=entityRelationEdgeStyle;fontSize=12;html=1;endArrow=ERmany;startArrow=ERmany;" parent="1" edge="1">
                    <mxGeometry width="100" height="100" relative="1" as="geometry">
                        <mxPoint x="1230" y="840.5" as="sourcePoint"/>
                        <mxPoint x="1320" y="840" as="targetPoint"/>
                    </mxGeometry>
                </mxCell>
                <mxCell id="743" value="" style="edgeStyle=entityRelationEdgeStyle;fontSize=12;html=1;endArrow=ERmany;entryX=-0.015;entryY=-0.026;entryDx=0;entryDy=0;entryPerimeter=0;" parent="1" target="721" edge="1">
                    <mxGeometry width="100" height="100" relative="1" as="geometry">
                        <mxPoint x="820" y="530" as="sourcePoint"/>
                        <mxPoint x="860" y="1020" as="targetPoint"/>
                    </mxGeometry>
                </mxCell>
                <mxCell id="760" value="" style="edgeStyle=entityRelationEdgeStyle;fontSize=12;html=1;endArrow=ERmany;" parent="1" edge="1">
                    <mxGeometry width="100" height="100" relative="1" as="geometry">
                        <mxPoint x="-130" y="320" as="sourcePoint"/>
                        <mxPoint x="-210" y="320" as="targetPoint"/>
                    </mxGeometry>
                </mxCell>
                <mxCell id="CwhzS3PvI31wmW9_6d_s-760" value="Telephone" style="shape=table;startSize=30;container=1;collapsible=1;childLayout=tableLayout;fixedRows=1;rowLines=0;fontStyle=1;align=center;resizeLast=1;" parent="1" vertex="1">
                    <mxGeometry x="-110" y="910" width="350" height="180" as="geometry"/>
                </mxCell>
                <mxCell id="CwhzS3PvI31wmW9_6d_s-761" value="" style="shape=tableRow;horizontal=0;startSize=0;swimlaneHead=0;swimlaneBody=0;fillColor=none;collapsible=0;dropTarget=0;points=[[0,0.5],[1,0.5]];portConstraint=eastwest;top=0;left=0;right=0;bottom=1;" parent="CwhzS3PvI31wmW9_6d_s-760" vertex="1">
                    <mxGeometry y="30" width="350" height="60" as="geometry"/>
                </mxCell>
                <mxCell id="CwhzS3PvI31wmW9_6d_s-762" value="PK&#10;&#10;FK&#10;" style="shape=partialRectangle;connectable=0;fillColor=none;top=0;left=0;bottom=0;right=0;fontStyle=1;overflow=hidden;" parent="CwhzS3PvI31wmW9_6d_s-761" vertex="1">
                    <mxGeometry width="30" height="60" as="geometry">
                        <mxRectangle width="30" height="60" as="alternateBounds"/>
                    </mxGeometry>
                </mxCell>
                <mxCell id="CwhzS3PvI31wmW9_6d_s-763" value="id　(INT)　NOT NULL&#10;&#10;user_id　(INT)　NOT NULL&#10;" style="shape=partialRectangle;connectable=0;fillColor=none;top=0;left=0;bottom=0;right=0;align=left;spacingLeft=6;fontStyle=5;overflow=hidden;" parent="CwhzS3PvI31wmW9_6d_s-761" vertex="1">
                    <mxGeometry x="30" width="320" height="60" as="geometry">
                        <mxRectangle width="320" height="60" as="alternateBounds"/>
                    </mxGeometry>
                </mxCell>
                <mxCell id="CwhzS3PvI31wmW9_6d_s-764" value="" style="shape=tableRow;horizontal=0;startSize=0;swimlaneHead=0;swimlaneBody=0;fillColor=none;collapsible=0;dropTarget=0;points=[[0,0.5],[1,0.5]];portConstraint=eastwest;top=0;left=0;right=0;bottom=0;" parent="CwhzS3PvI31wmW9_6d_s-760" vertex="1">
                    <mxGeometry y="90" width="350" height="30" as="geometry"/>
                </mxCell>
                <mxCell id="CwhzS3PvI31wmW9_6d_s-765" value="" style="shape=partialRectangle;connectable=0;fillColor=none;top=0;left=0;bottom=0;right=0;editable=1;overflow=hidden;" parent="CwhzS3PvI31wmW9_6d_s-764" vertex="1">
                    <mxGeometry width="30" height="30" as="geometry">
                        <mxRectangle width="30" height="30" as="alternateBounds"/>
                    </mxGeometry>
                </mxCell>
                <mxCell id="CwhzS3PvI31wmW9_6d_s-766" value="phone_number　(VARCHAR)" style="shape=partialRectangle;connectable=0;fillColor=none;top=0;left=0;bottom=0;right=0;align=left;spacingLeft=6;overflow=hidden;" parent="CwhzS3PvI31wmW9_6d_s-764" vertex="1">
                    <mxGeometry x="30" width="320" height="30" as="geometry">
                        <mxRectangle width="320" height="30" as="alternateBounds"/>
                    </mxGeometry>
                </mxCell>
                <mxCell id="CwhzS3PvI31wmW9_6d_s-767" value="" style="shape=tableRow;horizontal=0;startSize=0;swimlaneHead=0;swimlaneBody=0;fillColor=none;collapsible=0;dropTarget=0;points=[[0,0.5],[1,0.5]];portConstraint=eastwest;top=0;left=0;right=0;bottom=0;" parent="CwhzS3PvI31wmW9_6d_s-760" vertex="1">
                    <mxGeometry y="120" width="350" height="30" as="geometry"/>
                </mxCell>
                <mxCell id="CwhzS3PvI31wmW9_6d_s-768" value="" style="shape=partialRectangle;connectable=0;fillColor=none;top=0;left=0;bottom=0;right=0;editable=1;overflow=hidden;" parent="CwhzS3PvI31wmW9_6d_s-767" vertex="1">
                    <mxGeometry width="30" height="30" as="geometry">
                        <mxRectangle width="30" height="30" as="alternateBounds"/>
                    </mxGeometry>
                </mxCell>
                <mxCell id="CwhzS3PvI31wmW9_6d_s-769" value="landline_phone_number　(VARCHAR)" style="shape=partialRectangle;connectable=0;fillColor=none;top=0;left=0;bottom=0;right=0;align=left;spacingLeft=6;overflow=hidden;" parent="CwhzS3PvI31wmW9_6d_s-767" vertex="1">
                    <mxGeometry x="30" width="320" height="30" as="geometry">
                        <mxRectangle width="320" height="30" as="alternateBounds"/>
                    </mxGeometry>
                </mxCell>
                <mxCell id="CwhzS3PvI31wmW9_6d_s-770" value="" style="shape=tableRow;horizontal=0;startSize=0;swimlaneHead=0;swimlaneBody=0;fillColor=none;collapsible=0;dropTarget=0;points=[[0,0.5],[1,0.5]];portConstraint=eastwest;top=0;left=0;right=0;bottom=0;" parent="CwhzS3PvI31wmW9_6d_s-760" vertex="1">
                    <mxGeometry y="150" width="350" height="30" as="geometry"/>
                </mxCell>
                <mxCell id="CwhzS3PvI31wmW9_6d_s-771" value="" style="shape=partialRectangle;connectable=0;fillColor=none;top=0;left=0;bottom=0;right=0;editable=1;overflow=hidden;" parent="CwhzS3PvI31wmW9_6d_s-770" vertex="1">
                    <mxGeometry width="30" height="30" as="geometry">
                        <mxRectangle width="30" height="30" as="alternateBounds"/>
                    </mxGeometry>
                </mxCell>
                <mxCell id="CwhzS3PvI31wmW9_6d_s-772" value="" style="shape=partialRectangle;connectable=0;fillColor=none;top=0;left=0;bottom=0;right=0;align=left;spacingLeft=6;overflow=hidden;" parent="CwhzS3PvI31wmW9_6d_s-770" vertex="1">
                    <mxGeometry x="30" width="320" height="30" as="geometry">
                        <mxRectangle width="320" height="30" as="alternateBounds"/>
                    </mxGeometry>
                </mxCell>
                <mxCell id="CwhzS3PvI31wmW9_6d_s-774" value="postal_code　(VARCHAR)" style="shape=partialRectangle;connectable=0;fillColor=none;top=0;left=0;bottom=0;right=0;align=left;spacingLeft=6;overflow=hidden;" parent="1" vertex="1">
                    <mxGeometry x="-79.5" y="836" width="150" height="30" as="geometry">
                        <mxRectangle width="130" height="30" as="alternateBounds"/>
                    </mxGeometry>
                </mxCell>
                <mxCell id="OLjdqwOgqjRAbt7zvJMd-786" value="Todo" style="shape=table;startSize=30;container=1;collapsible=1;childLayout=tableLayout;fixedRows=1;rowLines=0;fontStyle=1;align=center;resizeLast=1;" parent="1" vertex="1">
                    <mxGeometry x="-100" y="170" width="375.5" height="420" as="geometry"/>
                </mxCell>
                <mxCell id="OLjdqwOgqjRAbt7zvJMd-787" value="" style="shape=tableRow;horizontal=0;startSize=0;swimlaneHead=0;swimlaneBody=0;fillColor=none;collapsible=0;dropTarget=0;points=[[0,0.5],[1,0.5]];portConstraint=eastwest;top=0;left=0;right=0;bottom=1;" parent="OLjdqwOgqjRAbt7zvJMd-786" vertex="1">
                    <mxGeometry y="30" width="375.5" height="60" as="geometry"/>
                </mxCell>
                <mxCell id="OLjdqwOgqjRAbt7zvJMd-788" value="PK&#10;&#10;FK" style="shape=partialRectangle;connectable=0;fillColor=none;top=0;left=0;bottom=0;right=0;fontStyle=1;overflow=hidden;" parent="OLjdqwOgqjRAbt7zvJMd-787" vertex="1">
                    <mxGeometry width="30" height="60" as="geometry">
                        <mxRectangle width="30" height="60" as="alternateBounds"/>
                    </mxGeometry>
                </mxCell>
                <mxCell id="OLjdqwOgqjRAbt7zvJMd-789" value="id 　(INT)　NOT NULL&#10;&#10;user_id 　(INT)　NOT NULL" style="shape=partialRectangle;connectable=0;fillColor=none;top=0;left=0;bottom=0;right=0;align=left;spacingLeft=6;fontStyle=5;overflow=hidden;" parent="OLjdqwOgqjRAbt7zvJMd-787" vertex="1">
                    <mxGeometry x="30" width="345.5" height="60" as="geometry">
                        <mxRectangle width="345.5" height="60" as="alternateBounds"/>
                    </mxGeometry>
                </mxCell>
                <mxCell id="OLjdqwOgqjRAbt7zvJMd-790" value="" style="shape=tableRow;horizontal=0;startSize=0;swimlaneHead=0;swimlaneBody=0;fillColor=none;collapsible=0;dropTarget=0;points=[[0,0.5],[1,0.5]];portConstraint=eastwest;top=0;left=0;right=0;bottom=0;" parent="OLjdqwOgqjRAbt7zvJMd-786" vertex="1">
                    <mxGeometry y="90" width="375.5" height="30" as="geometry"/>
                </mxCell>
                <mxCell id="OLjdqwOgqjRAbt7zvJMd-791" value="" style="shape=partialRectangle;connectable=0;fillColor=none;top=0;left=0;bottom=0;right=0;editable=1;overflow=hidden;" parent="OLjdqwOgqjRAbt7zvJMd-790" vertex="1">
                    <mxGeometry width="30" height="30" as="geometry">
                        <mxRectangle width="30" height="30" as="alternateBounds"/>
                    </mxGeometry>
                </mxCell>
                <mxCell id="OLjdqwOgqjRAbt7zvJMd-792" value="subject　(VARCHAR)　NOT NULL" style="shape=partialRectangle;connectable=0;fillColor=none;top=0;left=0;bottom=0;right=0;align=left;spacingLeft=6;overflow=hidden;" parent="OLjdqwOgqjRAbt7zvJMd-790" vertex="1">
                    <mxGeometry x="30" width="345.5" height="30" as="geometry">
                        <mxRectangle width="345.5" height="30" as="alternateBounds"/>
                    </mxGeometry>
                </mxCell>
                <mxCell id="OLjdqwOgqjRAbt7zvJMd-793" value="" style="shape=tableRow;horizontal=0;startSize=0;swimlaneHead=0;swimlaneBody=0;fillColor=none;collapsible=0;dropTarget=0;points=[[0,0.5],[1,0.5]];portConstraint=eastwest;top=0;left=0;right=0;bottom=0;" parent="OLjdqwOgqjRAbt7zvJMd-786" vertex="1">
                    <mxGeometry y="120" width="375.5" height="30" as="geometry"/>
                </mxCell>
                <mxCell id="OLjdqwOgqjRAbt7zvJMd-794" value="" style="shape=partialRectangle;connectable=0;fillColor=none;top=0;left=0;bottom=0;right=0;editable=1;overflow=hidden;" parent="OLjdqwOgqjRAbt7zvJMd-793" vertex="1">
                    <mxGeometry width="30" height="30" as="geometry">
                        <mxRectangle width="30" height="30" as="alternateBounds"/>
                    </mxGeometry>
                </mxCell>
                <mxCell id="OLjdqwOgqjRAbt7zvJMd-795" value="title　(VARCHAR)　NOT NULL" style="shape=partialRectangle;connectable=0;fillColor=none;top=0;left=0;bottom=0;right=0;align=left;spacingLeft=6;overflow=hidden;" parent="OLjdqwOgqjRAbt7zvJMd-793" vertex="1">
                    <mxGeometry x="30" width="345.5" height="30" as="geometry">
                        <mxRectangle width="345.5" height="30" as="alternateBounds"/>
                    </mxGeometry>
                </mxCell>
                <mxCell id="OLjdqwOgqjRAbt7zvJMd-796" value="" style="shape=tableRow;horizontal=0;startSize=0;swimlaneHead=0;swimlaneBody=0;fillColor=none;collapsible=0;dropTarget=0;points=[[0,0.5],[1,0.5]];portConstraint=eastwest;top=0;left=0;right=0;bottom=0;" parent="OLjdqwOgqjRAbt7zvJMd-786" vertex="1">
                    <mxGeometry y="150" width="375.5" height="270" as="geometry"/>
                </mxCell>
                <mxCell id="OLjdqwOgqjRAbt7zvJMd-797" value="" style="shape=partialRectangle;connectable=0;fillColor=none;top=0;left=0;bottom=0;right=0;editable=1;overflow=hidden;" parent="OLjdqwOgqjRAbt7zvJMd-796" vertex="1">
                    <mxGeometry width="30" height="270" as="geometry">
                        <mxRectangle width="30" height="270" as="alternateBounds"/>
                    </mxGeometry>
                </mxCell>
                <mxCell id="OLjdqwOgqjRAbt7zvJMd-798" value="" style="shape=partialRectangle;connectable=0;fillColor=none;top=0;left=0;bottom=0;right=0;align=left;spacingLeft=6;overflow=hidden;" parent="OLjdqwOgqjRAbt7zvJMd-796" vertex="1">
                    <mxGeometry x="30" width="345.5" height="270" as="geometry">
                        <mxRectangle width="345.5" height="270" as="alternateBounds"/>
                    </mxGeometry>
                </mxCell>
                <mxCell id="OLjdqwOgqjRAbt7zvJMd-802" value="description　(Text)" style="shape=partialRectangle;connectable=0;fillColor=none;top=0;left=0;bottom=0;right=0;align=left;spacingLeft=6;overflow=hidden;" parent="1" vertex="1">
                    <mxGeometry x="-70" y="320" width="345.5" height="30" as="geometry">
                        <mxRectangle width="345.5" height="30" as="alternateBounds"/>
                    </mxGeometry>
                </mxCell>
                <mxCell id="OLjdqwOgqjRAbt7zvJMd-803" value="progress　(VARCHAR)　NOT NULL" style="shape=partialRectangle;connectable=0;fillColor=none;top=0;left=0;bottom=0;right=0;align=left;spacingLeft=6;overflow=hidden;" parent="1" vertex="1">
                    <mxGeometry x="-70" y="355" width="345.5" height="30" as="geometry">
                        <mxRectangle width="345.5" height="30" as="alternateBounds"/>
                    </mxGeometry>
                </mxCell>
                <mxCell id="OLjdqwOgqjRAbt7zvJMd-804" value="scheduled_study_time　(VARCHAR)　NOT NULL" style="shape=partialRectangle;connectable=0;fillColor=none;top=0;left=0;bottom=0;right=0;align=left;spacingLeft=6;overflow=hidden;" parent="1" vertex="1">
                    <mxGeometry x="-70" y="390" width="345.5" height="30" as="geometry">
                        <mxRectangle width="345.5" height="30" as="alternateBounds"/>
                    </mxGeometry>
                </mxCell>
                <mxCell id="OLjdqwOgqjRAbt7zvJMd-805" value="study_type　(Int)　NOT NULL" style="shape=partialRectangle;connectable=0;fillColor=none;top=0;left=0;bottom=0;right=0;align=left;spacingLeft=6;overflow=hidden;" parent="1" vertex="1">
                    <mxGeometry x="-70" y="550" width="345.5" height="30" as="geometry">
                        <mxRectangle width="345.5" height="30" as="alternateBounds"/>
                    </mxGeometry>
                </mxCell>
                <mxCell id="OLjdqwOgqjRAbt7zvJMd-806" value="importance　(Int)" style="shape=partialRectangle;connectable=0;fillColor=none;top=0;left=0;bottom=0;right=0;align=left;spacingLeft=6;overflow=hidden;" parent="1" vertex="1">
                    <mxGeometry x="-70" y="455" width="345.5" height="30" as="geometry">
                        <mxRectangle width="345.5" height="30" as="alternateBounds"/>
                    </mxGeometry>
                </mxCell>
                <mxCell id="OLjdqwOgqjRAbt7zvJMd-807" value="star_rating　(Int)" style="shape=partialRectangle;connectable=0;fillColor=none;top=0;left=0;bottom=0;right=0;align=left;spacingLeft=6;overflow=hidden;" parent="1" vertex="1">
                    <mxGeometry x="-70" y="485" width="345.5" height="30" as="geometry">
                        <mxRectangle width="345.5" height="30" as="alternateBounds"/>
                    </mxGeometry>
                </mxCell>
                <mxCell id="OLjdqwOgqjRAbt7zvJMd-808" value="total_hour　(Int)" style="shape=partialRectangle;connectable=0;fillColor=none;top=0;left=0;bottom=0;right=0;align=left;spacingLeft=6;overflow=hidden;" parent="1" vertex="1">
                    <mxGeometry x="-70" y="515" width="345.5" height="30" as="geometry">
                        <mxRectangle width="345.5" height="30" as="alternateBounds"/>
                    </mxGeometry>
                </mxCell>
                <mxCell id="OLjdqwOgqjRAbt7zvJMd-809" value="due_date　（Date）" style="shape=partialRectangle;connectable=0;fillColor=none;top=0;left=0;bottom=0;right=0;align=left;spacingLeft=6;overflow=hidden;" parent="1" vertex="1">
                    <mxGeometry x="-70" y="425" width="345.5" height="30" as="geometry">
                        <mxRectangle width="345.5" height="30" as="alternateBounds"/>
                    </mxGeometry>
                </mxCell>
            </root>
        </mxGraphModel>
    </diagram>
    <diagram id="6gSIzzDwN-Ka40cbTm8f" name="ページ3">
        <mxGraphModel dx="1755" dy="1276" grid="1" gridSize="10" guides="1" tooltips="1" connect="1" arrows="1" fold="1" page="1" pageScale="1" pageWidth="827" pageHeight="1169" math="0" shadow="0">
            <root>
                <mxCell id="0"/>
                <mxCell id="1" parent="0"/>
            </root>
        </mxGraphModel>
    </diagram>
</mxfile>